%TF.GenerationSoftware,KiCad,Pcbnew,(6.0.1)*%
%TF.CreationDate,2022-01-21T15:58:59-05:00*%
%TF.ProjectId,quagga,71756167-6761-42e6-9b69-6361645f7063,v1.0.0*%
%TF.SameCoordinates,Original*%
%TF.FileFunction,Legend,Top*%
%TF.FilePolarity,Positive*%
%FSLAX46Y46*%
G04 Gerber Fmt 4.6, Leading zero omitted, Abs format (unit mm)*
G04 Created by KiCad (PCBNEW (6.0.1)) date 2022-01-21 15:58:59*
%MOMM*%
%LPD*%
G01*
G04 APERTURE LIST*
%ADD10C,0.150000*%
%ADD11R,1.752600X1.752600*%
%ADD12C,1.752600*%
%ADD13C,1.701800*%
%ADD14C,3.429000*%
%ADD15C,2.032000*%
%ADD16C,1.500000*%
%ADD17O,2.200000X1.600000*%
G04 APERTURE END LIST*
D10*
X150978333Y-127196904D02*
X151245000Y-127996904D01*
X151511666Y-127196904D01*
X152235476Y-127920714D02*
X152197380Y-127958809D01*
X152083095Y-127996904D01*
X152006904Y-127996904D01*
X151892619Y-127958809D01*
X151816428Y-127882619D01*
X151778333Y-127806428D01*
X151740238Y-127654047D01*
X151740238Y-127539761D01*
X151778333Y-127387380D01*
X151816428Y-127311190D01*
X151892619Y-127235000D01*
X152006904Y-127196904D01*
X152083095Y-127196904D01*
X152197380Y-127235000D01*
X152235476Y-127273095D01*
X153035476Y-127920714D02*
X152997380Y-127958809D01*
X152883095Y-127996904D01*
X152806904Y-127996904D01*
X152692619Y-127958809D01*
X152616428Y-127882619D01*
X152578333Y-127806428D01*
X152540238Y-127654047D01*
X152540238Y-127539761D01*
X152578333Y-127387380D01*
X152616428Y-127311190D01*
X152692619Y-127235000D01*
X152806904Y-127196904D01*
X152883095Y-127196904D01*
X152997380Y-127235000D01*
X153035476Y-127273095D01*
X160673571Y-130536904D02*
X160673571Y-129736904D01*
X160978333Y-129736904D01*
X161054523Y-129775000D01*
X161092619Y-129813095D01*
X161130714Y-129889285D01*
X161130714Y-130003571D01*
X161092619Y-130079761D01*
X161054523Y-130117857D01*
X160978333Y-130155952D01*
X160673571Y-130155952D01*
X161625952Y-129736904D02*
X161702142Y-129736904D01*
X161778333Y-129775000D01*
X161816428Y-129813095D01*
X161854523Y-129889285D01*
X161892619Y-130041666D01*
X161892619Y-130232142D01*
X161854523Y-130384523D01*
X161816428Y-130460714D01*
X161778333Y-130498809D01*
X161702142Y-130536904D01*
X161625952Y-130536904D01*
X161549761Y-130498809D01*
X161511666Y-130460714D01*
X161473571Y-130384523D01*
X161435476Y-130232142D01*
X161435476Y-130041666D01*
X161473571Y-129889285D01*
X161511666Y-129813095D01*
X161549761Y-129775000D01*
X161625952Y-129736904D01*
X162197380Y-129813095D02*
X162235476Y-129775000D01*
X162311666Y-129736904D01*
X162502142Y-129736904D01*
X162578333Y-129775000D01*
X162616428Y-129813095D01*
X162654523Y-129889285D01*
X162654523Y-129965476D01*
X162616428Y-130079761D01*
X162159285Y-130536904D01*
X162654523Y-130536904D01*
X160673571Y-122916904D02*
X160673571Y-122116904D01*
X160978333Y-122116904D01*
X161054523Y-122155000D01*
X161092619Y-122193095D01*
X161130714Y-122269285D01*
X161130714Y-122383571D01*
X161092619Y-122459761D01*
X161054523Y-122497857D01*
X160978333Y-122535952D01*
X160673571Y-122535952D01*
X161625952Y-122116904D02*
X161702142Y-122116904D01*
X161778333Y-122155000D01*
X161816428Y-122193095D01*
X161854523Y-122269285D01*
X161892619Y-122421666D01*
X161892619Y-122612142D01*
X161854523Y-122764523D01*
X161816428Y-122840714D01*
X161778333Y-122878809D01*
X161702142Y-122916904D01*
X161625952Y-122916904D01*
X161549761Y-122878809D01*
X161511666Y-122840714D01*
X161473571Y-122764523D01*
X161435476Y-122612142D01*
X161435476Y-122421666D01*
X161473571Y-122269285D01*
X161511666Y-122193095D01*
X161549761Y-122155000D01*
X161625952Y-122116904D01*
X162387857Y-122116904D02*
X162464047Y-122116904D01*
X162540238Y-122155000D01*
X162578333Y-122193095D01*
X162616428Y-122269285D01*
X162654523Y-122421666D01*
X162654523Y-122612142D01*
X162616428Y-122764523D01*
X162578333Y-122840714D01*
X162540238Y-122878809D01*
X162464047Y-122916904D01*
X162387857Y-122916904D01*
X162311666Y-122878809D01*
X162273571Y-122840714D01*
X162235476Y-122764523D01*
X162197380Y-122612142D01*
X162197380Y-122421666D01*
X162235476Y-122269285D01*
X162273571Y-122193095D01*
X162311666Y-122155000D01*
X162387857Y-122116904D01*
X151073571Y-133076904D02*
X151073571Y-132276904D01*
X151378333Y-132276904D01*
X151454523Y-132315000D01*
X151492619Y-132353095D01*
X151530714Y-132429285D01*
X151530714Y-132543571D01*
X151492619Y-132619761D01*
X151454523Y-132657857D01*
X151378333Y-132695952D01*
X151073571Y-132695952D01*
X151835476Y-132353095D02*
X151873571Y-132315000D01*
X151949761Y-132276904D01*
X152140238Y-132276904D01*
X152216428Y-132315000D01*
X152254523Y-132353095D01*
X152292619Y-132429285D01*
X152292619Y-132505476D01*
X152254523Y-132619761D01*
X151797380Y-133076904D01*
X152292619Y-133076904D01*
X152787857Y-132276904D02*
X152864047Y-132276904D01*
X152940238Y-132315000D01*
X152978333Y-132353095D01*
X153016428Y-132429285D01*
X153054523Y-132581666D01*
X153054523Y-132772142D01*
X153016428Y-132924523D01*
X152978333Y-133000714D01*
X152940238Y-133038809D01*
X152864047Y-133076904D01*
X152787857Y-133076904D01*
X152711666Y-133038809D01*
X152673571Y-133000714D01*
X152635476Y-132924523D01*
X152597380Y-132772142D01*
X152597380Y-132581666D01*
X152635476Y-132429285D01*
X152673571Y-132353095D01*
X152711666Y-132315000D01*
X152787857Y-132276904D01*
X151435476Y-122155000D02*
X151359285Y-122116904D01*
X151245000Y-122116904D01*
X151130714Y-122155000D01*
X151054523Y-122231190D01*
X151016428Y-122307380D01*
X150978333Y-122459761D01*
X150978333Y-122574047D01*
X151016428Y-122726428D01*
X151054523Y-122802619D01*
X151130714Y-122878809D01*
X151245000Y-122916904D01*
X151321190Y-122916904D01*
X151435476Y-122878809D01*
X151473571Y-122840714D01*
X151473571Y-122574047D01*
X151321190Y-122574047D01*
X151816428Y-122916904D02*
X151816428Y-122116904D01*
X152273571Y-122916904D01*
X152273571Y-122116904D01*
X152654523Y-122916904D02*
X152654523Y-122116904D01*
X152845000Y-122116904D01*
X152959285Y-122155000D01*
X153035476Y-122231190D01*
X153073571Y-122307380D01*
X153111666Y-122459761D01*
X153111666Y-122574047D01*
X153073571Y-122726428D01*
X153035476Y-122802619D01*
X152959285Y-122878809D01*
X152845000Y-122916904D01*
X152654523Y-122916904D01*
X151073571Y-143236904D02*
X151073571Y-142436904D01*
X151378333Y-142436904D01*
X151454523Y-142475000D01*
X151492619Y-142513095D01*
X151530714Y-142589285D01*
X151530714Y-142703571D01*
X151492619Y-142779761D01*
X151454523Y-142817857D01*
X151378333Y-142855952D01*
X151073571Y-142855952D01*
X152292619Y-143236904D02*
X151835476Y-143236904D01*
X152064047Y-143236904D02*
X152064047Y-142436904D01*
X151987857Y-142551190D01*
X151911666Y-142627380D01*
X151835476Y-142665476D01*
X152978333Y-142703571D02*
X152978333Y-143236904D01*
X152787857Y-142398809D02*
X152597380Y-142970238D01*
X153092619Y-142970238D01*
X160673571Y-120376904D02*
X160673571Y-119576904D01*
X160978333Y-119576904D01*
X161054523Y-119615000D01*
X161092619Y-119653095D01*
X161130714Y-119729285D01*
X161130714Y-119843571D01*
X161092619Y-119919761D01*
X161054523Y-119957857D01*
X160978333Y-119995952D01*
X160673571Y-119995952D01*
X161625952Y-119576904D02*
X161702142Y-119576904D01*
X161778333Y-119615000D01*
X161816428Y-119653095D01*
X161854523Y-119729285D01*
X161892619Y-119881666D01*
X161892619Y-120072142D01*
X161854523Y-120224523D01*
X161816428Y-120300714D01*
X161778333Y-120338809D01*
X161702142Y-120376904D01*
X161625952Y-120376904D01*
X161549761Y-120338809D01*
X161511666Y-120300714D01*
X161473571Y-120224523D01*
X161435476Y-120072142D01*
X161435476Y-119881666D01*
X161473571Y-119729285D01*
X161511666Y-119653095D01*
X161549761Y-119615000D01*
X161625952Y-119576904D01*
X162654523Y-120376904D02*
X162197380Y-120376904D01*
X162425952Y-120376904D02*
X162425952Y-119576904D01*
X162349761Y-119691190D01*
X162273571Y-119767380D01*
X162197380Y-119805476D01*
X160673571Y-140696904D02*
X160673571Y-139896904D01*
X160978333Y-139896904D01*
X161054523Y-139935000D01*
X161092619Y-139973095D01*
X161130714Y-140049285D01*
X161130714Y-140163571D01*
X161092619Y-140239761D01*
X161054523Y-140277857D01*
X160978333Y-140315952D01*
X160673571Y-140315952D01*
X161625952Y-139896904D02*
X161702142Y-139896904D01*
X161778333Y-139935000D01*
X161816428Y-139973095D01*
X161854523Y-140049285D01*
X161892619Y-140201666D01*
X161892619Y-140392142D01*
X161854523Y-140544523D01*
X161816428Y-140620714D01*
X161778333Y-140658809D01*
X161702142Y-140696904D01*
X161625952Y-140696904D01*
X161549761Y-140658809D01*
X161511666Y-140620714D01*
X161473571Y-140544523D01*
X161435476Y-140392142D01*
X161435476Y-140201666D01*
X161473571Y-140049285D01*
X161511666Y-139973095D01*
X161549761Y-139935000D01*
X161625952Y-139896904D01*
X162578333Y-139896904D02*
X162425952Y-139896904D01*
X162349761Y-139935000D01*
X162311666Y-139973095D01*
X162235476Y-140087380D01*
X162197380Y-140239761D01*
X162197380Y-140544523D01*
X162235476Y-140620714D01*
X162273571Y-140658809D01*
X162349761Y-140696904D01*
X162502142Y-140696904D01*
X162578333Y-140658809D01*
X162616428Y-140620714D01*
X162654523Y-140544523D01*
X162654523Y-140354047D01*
X162616428Y-140277857D01*
X162578333Y-140239761D01*
X162502142Y-140201666D01*
X162349761Y-140201666D01*
X162273571Y-140239761D01*
X162235476Y-140277857D01*
X162197380Y-140354047D01*
X151073571Y-138156904D02*
X151073571Y-137356904D01*
X151378333Y-137356904D01*
X151454523Y-137395000D01*
X151492619Y-137433095D01*
X151530714Y-137509285D01*
X151530714Y-137623571D01*
X151492619Y-137699761D01*
X151454523Y-137737857D01*
X151378333Y-137775952D01*
X151073571Y-137775952D01*
X152292619Y-138156904D02*
X151835476Y-138156904D01*
X152064047Y-138156904D02*
X152064047Y-137356904D01*
X151987857Y-137471190D01*
X151911666Y-137547380D01*
X151835476Y-137585476D01*
X152749761Y-137699761D02*
X152673571Y-137661666D01*
X152635476Y-137623571D01*
X152597380Y-137547380D01*
X152597380Y-137509285D01*
X152635476Y-137433095D01*
X152673571Y-137395000D01*
X152749761Y-137356904D01*
X152902142Y-137356904D01*
X152978333Y-137395000D01*
X153016428Y-137433095D01*
X153054523Y-137509285D01*
X153054523Y-137547380D01*
X153016428Y-137623571D01*
X152978333Y-137661666D01*
X152902142Y-137699761D01*
X152749761Y-137699761D01*
X152673571Y-137737857D01*
X152635476Y-137775952D01*
X152597380Y-137852142D01*
X152597380Y-138004523D01*
X152635476Y-138080714D01*
X152673571Y-138118809D01*
X152749761Y-138156904D01*
X152902142Y-138156904D01*
X152978333Y-138118809D01*
X153016428Y-138080714D01*
X153054523Y-138004523D01*
X153054523Y-137852142D01*
X153016428Y-137775952D01*
X152978333Y-137737857D01*
X152902142Y-137699761D01*
X151073571Y-140696904D02*
X151073571Y-139896904D01*
X151378333Y-139896904D01*
X151454523Y-139935000D01*
X151492619Y-139973095D01*
X151530714Y-140049285D01*
X151530714Y-140163571D01*
X151492619Y-140239761D01*
X151454523Y-140277857D01*
X151378333Y-140315952D01*
X151073571Y-140315952D01*
X152292619Y-140696904D02*
X151835476Y-140696904D01*
X152064047Y-140696904D02*
X152064047Y-139896904D01*
X151987857Y-140011190D01*
X151911666Y-140087380D01*
X151835476Y-140125476D01*
X153016428Y-139896904D02*
X152635476Y-139896904D01*
X152597380Y-140277857D01*
X152635476Y-140239761D01*
X152711666Y-140201666D01*
X152902142Y-140201666D01*
X152978333Y-140239761D01*
X153016428Y-140277857D01*
X153054523Y-140354047D01*
X153054523Y-140544523D01*
X153016428Y-140620714D01*
X152978333Y-140658809D01*
X152902142Y-140696904D01*
X152711666Y-140696904D01*
X152635476Y-140658809D01*
X152597380Y-140620714D01*
X151492619Y-120376904D02*
X151225952Y-119995952D01*
X151035476Y-120376904D02*
X151035476Y-119576904D01*
X151340238Y-119576904D01*
X151416428Y-119615000D01*
X151454523Y-119653095D01*
X151492619Y-119729285D01*
X151492619Y-119843571D01*
X151454523Y-119919761D01*
X151416428Y-119957857D01*
X151340238Y-119995952D01*
X151035476Y-119995952D01*
X151797380Y-120148333D02*
X152178333Y-120148333D01*
X151721190Y-120376904D02*
X151987857Y-119576904D01*
X152254523Y-120376904D01*
X152445000Y-119576904D02*
X152635476Y-120376904D01*
X152787857Y-119805476D01*
X152940238Y-120376904D01*
X153130714Y-119576904D01*
X151606904Y-125456904D02*
X151340238Y-125075952D01*
X151149761Y-125456904D02*
X151149761Y-124656904D01*
X151454523Y-124656904D01*
X151530714Y-124695000D01*
X151568809Y-124733095D01*
X151606904Y-124809285D01*
X151606904Y-124923571D01*
X151568809Y-124999761D01*
X151530714Y-125037857D01*
X151454523Y-125075952D01*
X151149761Y-125075952D01*
X151911666Y-125418809D02*
X152025952Y-125456904D01*
X152216428Y-125456904D01*
X152292619Y-125418809D01*
X152330714Y-125380714D01*
X152368809Y-125304523D01*
X152368809Y-125228333D01*
X152330714Y-125152142D01*
X152292619Y-125114047D01*
X152216428Y-125075952D01*
X152064047Y-125037857D01*
X151987857Y-124999761D01*
X151949761Y-124961666D01*
X151911666Y-124885476D01*
X151911666Y-124809285D01*
X151949761Y-124733095D01*
X151987857Y-124695000D01*
X152064047Y-124656904D01*
X152254523Y-124656904D01*
X152368809Y-124695000D01*
X152597380Y-124656904D02*
X153054523Y-124656904D01*
X152825952Y-125456904D02*
X152825952Y-124656904D01*
X160673571Y-135616904D02*
X160673571Y-134816904D01*
X160978333Y-134816904D01*
X161054523Y-134855000D01*
X161092619Y-134893095D01*
X161130714Y-134969285D01*
X161130714Y-135083571D01*
X161092619Y-135159761D01*
X161054523Y-135197857D01*
X160978333Y-135235952D01*
X160673571Y-135235952D01*
X161625952Y-134816904D02*
X161702142Y-134816904D01*
X161778333Y-134855000D01*
X161816428Y-134893095D01*
X161854523Y-134969285D01*
X161892619Y-135121666D01*
X161892619Y-135312142D01*
X161854523Y-135464523D01*
X161816428Y-135540714D01*
X161778333Y-135578809D01*
X161702142Y-135616904D01*
X161625952Y-135616904D01*
X161549761Y-135578809D01*
X161511666Y-135540714D01*
X161473571Y-135464523D01*
X161435476Y-135312142D01*
X161435476Y-135121666D01*
X161473571Y-134969285D01*
X161511666Y-134893095D01*
X161549761Y-134855000D01*
X161625952Y-134816904D01*
X162578333Y-135083571D02*
X162578333Y-135616904D01*
X162387857Y-134778809D02*
X162197380Y-135350238D01*
X162692619Y-135350238D01*
X161035476Y-124695000D02*
X160959285Y-124656904D01*
X160845000Y-124656904D01*
X160730714Y-124695000D01*
X160654523Y-124771190D01*
X160616428Y-124847380D01*
X160578333Y-124999761D01*
X160578333Y-125114047D01*
X160616428Y-125266428D01*
X160654523Y-125342619D01*
X160730714Y-125418809D01*
X160845000Y-125456904D01*
X160921190Y-125456904D01*
X161035476Y-125418809D01*
X161073571Y-125380714D01*
X161073571Y-125114047D01*
X160921190Y-125114047D01*
X161416428Y-125456904D02*
X161416428Y-124656904D01*
X161873571Y-125456904D01*
X161873571Y-124656904D01*
X162254523Y-125456904D02*
X162254523Y-124656904D01*
X162445000Y-124656904D01*
X162559285Y-124695000D01*
X162635476Y-124771190D01*
X162673571Y-124847380D01*
X162711666Y-124999761D01*
X162711666Y-125114047D01*
X162673571Y-125266428D01*
X162635476Y-125342619D01*
X162559285Y-125418809D01*
X162445000Y-125456904D01*
X162254523Y-125456904D01*
X160673571Y-148316904D02*
X160673571Y-147516904D01*
X160978333Y-147516904D01*
X161054523Y-147555000D01*
X161092619Y-147593095D01*
X161130714Y-147669285D01*
X161130714Y-147783571D01*
X161092619Y-147859761D01*
X161054523Y-147897857D01*
X160978333Y-147935952D01*
X160673571Y-147935952D01*
X161625952Y-147516904D02*
X161702142Y-147516904D01*
X161778333Y-147555000D01*
X161816428Y-147593095D01*
X161854523Y-147669285D01*
X161892619Y-147821666D01*
X161892619Y-148012142D01*
X161854523Y-148164523D01*
X161816428Y-148240714D01*
X161778333Y-148278809D01*
X161702142Y-148316904D01*
X161625952Y-148316904D01*
X161549761Y-148278809D01*
X161511666Y-148240714D01*
X161473571Y-148164523D01*
X161435476Y-148012142D01*
X161435476Y-147821666D01*
X161473571Y-147669285D01*
X161511666Y-147593095D01*
X161549761Y-147555000D01*
X161625952Y-147516904D01*
X162273571Y-148316904D02*
X162425952Y-148316904D01*
X162502142Y-148278809D01*
X162540238Y-148240714D01*
X162616428Y-148126428D01*
X162654523Y-147974047D01*
X162654523Y-147669285D01*
X162616428Y-147593095D01*
X162578333Y-147555000D01*
X162502142Y-147516904D01*
X162349761Y-147516904D01*
X162273571Y-147555000D01*
X162235476Y-147593095D01*
X162197380Y-147669285D01*
X162197380Y-147859761D01*
X162235476Y-147935952D01*
X162273571Y-147974047D01*
X162349761Y-148012142D01*
X162502142Y-148012142D01*
X162578333Y-147974047D01*
X162616428Y-147935952D01*
X162654523Y-147859761D01*
X161035476Y-127235000D02*
X160959285Y-127196904D01*
X160845000Y-127196904D01*
X160730714Y-127235000D01*
X160654523Y-127311190D01*
X160616428Y-127387380D01*
X160578333Y-127539761D01*
X160578333Y-127654047D01*
X160616428Y-127806428D01*
X160654523Y-127882619D01*
X160730714Y-127958809D01*
X160845000Y-127996904D01*
X160921190Y-127996904D01*
X161035476Y-127958809D01*
X161073571Y-127920714D01*
X161073571Y-127654047D01*
X160921190Y-127654047D01*
X161416428Y-127996904D02*
X161416428Y-127196904D01*
X161873571Y-127996904D01*
X161873571Y-127196904D01*
X162254523Y-127996904D02*
X162254523Y-127196904D01*
X162445000Y-127196904D01*
X162559285Y-127235000D01*
X162635476Y-127311190D01*
X162673571Y-127387380D01*
X162711666Y-127539761D01*
X162711666Y-127654047D01*
X162673571Y-127806428D01*
X162635476Y-127882619D01*
X162559285Y-127958809D01*
X162445000Y-127996904D01*
X162254523Y-127996904D01*
X160673571Y-138156904D02*
X160673571Y-137356904D01*
X160978333Y-137356904D01*
X161054523Y-137395000D01*
X161092619Y-137433095D01*
X161130714Y-137509285D01*
X161130714Y-137623571D01*
X161092619Y-137699761D01*
X161054523Y-137737857D01*
X160978333Y-137775952D01*
X160673571Y-137775952D01*
X161625952Y-137356904D02*
X161702142Y-137356904D01*
X161778333Y-137395000D01*
X161816428Y-137433095D01*
X161854523Y-137509285D01*
X161892619Y-137661666D01*
X161892619Y-137852142D01*
X161854523Y-138004523D01*
X161816428Y-138080714D01*
X161778333Y-138118809D01*
X161702142Y-138156904D01*
X161625952Y-138156904D01*
X161549761Y-138118809D01*
X161511666Y-138080714D01*
X161473571Y-138004523D01*
X161435476Y-137852142D01*
X161435476Y-137661666D01*
X161473571Y-137509285D01*
X161511666Y-137433095D01*
X161549761Y-137395000D01*
X161625952Y-137356904D01*
X162616428Y-137356904D02*
X162235476Y-137356904D01*
X162197380Y-137737857D01*
X162235476Y-137699761D01*
X162311666Y-137661666D01*
X162502142Y-137661666D01*
X162578333Y-137699761D01*
X162616428Y-137737857D01*
X162654523Y-137814047D01*
X162654523Y-138004523D01*
X162616428Y-138080714D01*
X162578333Y-138118809D01*
X162502142Y-138156904D01*
X162311666Y-138156904D01*
X162235476Y-138118809D01*
X162197380Y-138080714D01*
X151073571Y-148316904D02*
X151073571Y-147516904D01*
X151378333Y-147516904D01*
X151454523Y-147555000D01*
X151492619Y-147593095D01*
X151530714Y-147669285D01*
X151530714Y-147783571D01*
X151492619Y-147859761D01*
X151454523Y-147897857D01*
X151378333Y-147935952D01*
X151073571Y-147935952D01*
X152292619Y-148316904D02*
X151835476Y-148316904D01*
X152064047Y-148316904D02*
X152064047Y-147516904D01*
X151987857Y-147631190D01*
X151911666Y-147707380D01*
X151835476Y-147745476D01*
X152787857Y-147516904D02*
X152864047Y-147516904D01*
X152940238Y-147555000D01*
X152978333Y-147593095D01*
X153016428Y-147669285D01*
X153054523Y-147821666D01*
X153054523Y-148012142D01*
X153016428Y-148164523D01*
X152978333Y-148240714D01*
X152940238Y-148278809D01*
X152864047Y-148316904D01*
X152787857Y-148316904D01*
X152711666Y-148278809D01*
X152673571Y-148240714D01*
X152635476Y-148164523D01*
X152597380Y-148012142D01*
X152597380Y-147821666D01*
X152635476Y-147669285D01*
X152673571Y-147593095D01*
X152711666Y-147555000D01*
X152787857Y-147516904D01*
X151073571Y-130536904D02*
X151073571Y-129736904D01*
X151378333Y-129736904D01*
X151454523Y-129775000D01*
X151492619Y-129813095D01*
X151530714Y-129889285D01*
X151530714Y-130003571D01*
X151492619Y-130079761D01*
X151454523Y-130117857D01*
X151378333Y-130155952D01*
X151073571Y-130155952D01*
X151835476Y-129813095D02*
X151873571Y-129775000D01*
X151949761Y-129736904D01*
X152140238Y-129736904D01*
X152216428Y-129775000D01*
X152254523Y-129813095D01*
X152292619Y-129889285D01*
X152292619Y-129965476D01*
X152254523Y-130079761D01*
X151797380Y-130536904D01*
X152292619Y-130536904D01*
X153054523Y-130536904D02*
X152597380Y-130536904D01*
X152825952Y-130536904D02*
X152825952Y-129736904D01*
X152749761Y-129851190D01*
X152673571Y-129927380D01*
X152597380Y-129965476D01*
X160673571Y-133076904D02*
X160673571Y-132276904D01*
X160978333Y-132276904D01*
X161054523Y-132315000D01*
X161092619Y-132353095D01*
X161130714Y-132429285D01*
X161130714Y-132543571D01*
X161092619Y-132619761D01*
X161054523Y-132657857D01*
X160978333Y-132695952D01*
X160673571Y-132695952D01*
X161625952Y-132276904D02*
X161702142Y-132276904D01*
X161778333Y-132315000D01*
X161816428Y-132353095D01*
X161854523Y-132429285D01*
X161892619Y-132581666D01*
X161892619Y-132772142D01*
X161854523Y-132924523D01*
X161816428Y-133000714D01*
X161778333Y-133038809D01*
X161702142Y-133076904D01*
X161625952Y-133076904D01*
X161549761Y-133038809D01*
X161511666Y-133000714D01*
X161473571Y-132924523D01*
X161435476Y-132772142D01*
X161435476Y-132581666D01*
X161473571Y-132429285D01*
X161511666Y-132353095D01*
X161549761Y-132315000D01*
X161625952Y-132276904D01*
X162159285Y-132276904D02*
X162654523Y-132276904D01*
X162387857Y-132581666D01*
X162502142Y-132581666D01*
X162578333Y-132619761D01*
X162616428Y-132657857D01*
X162654523Y-132734047D01*
X162654523Y-132924523D01*
X162616428Y-133000714D01*
X162578333Y-133038809D01*
X162502142Y-133076904D01*
X162273571Y-133076904D01*
X162197380Y-133038809D01*
X162159285Y-133000714D01*
X160673571Y-143236904D02*
X160673571Y-142436904D01*
X160978333Y-142436904D01*
X161054523Y-142475000D01*
X161092619Y-142513095D01*
X161130714Y-142589285D01*
X161130714Y-142703571D01*
X161092619Y-142779761D01*
X161054523Y-142817857D01*
X160978333Y-142855952D01*
X160673571Y-142855952D01*
X161625952Y-142436904D02*
X161702142Y-142436904D01*
X161778333Y-142475000D01*
X161816428Y-142513095D01*
X161854523Y-142589285D01*
X161892619Y-142741666D01*
X161892619Y-142932142D01*
X161854523Y-143084523D01*
X161816428Y-143160714D01*
X161778333Y-143198809D01*
X161702142Y-143236904D01*
X161625952Y-143236904D01*
X161549761Y-143198809D01*
X161511666Y-143160714D01*
X161473571Y-143084523D01*
X161435476Y-142932142D01*
X161435476Y-142741666D01*
X161473571Y-142589285D01*
X161511666Y-142513095D01*
X161549761Y-142475000D01*
X161625952Y-142436904D01*
X162159285Y-142436904D02*
X162692619Y-142436904D01*
X162349761Y-143236904D01*
X151073571Y-145776904D02*
X151073571Y-144976904D01*
X151378333Y-144976904D01*
X151454523Y-145015000D01*
X151492619Y-145053095D01*
X151530714Y-145129285D01*
X151530714Y-145243571D01*
X151492619Y-145319761D01*
X151454523Y-145357857D01*
X151378333Y-145395952D01*
X151073571Y-145395952D01*
X152292619Y-145776904D02*
X151835476Y-145776904D01*
X152064047Y-145776904D02*
X152064047Y-144976904D01*
X151987857Y-145091190D01*
X151911666Y-145167380D01*
X151835476Y-145205476D01*
X152978333Y-144976904D02*
X152825952Y-144976904D01*
X152749761Y-145015000D01*
X152711666Y-145053095D01*
X152635476Y-145167380D01*
X152597380Y-145319761D01*
X152597380Y-145624523D01*
X152635476Y-145700714D01*
X152673571Y-145738809D01*
X152749761Y-145776904D01*
X152902142Y-145776904D01*
X152978333Y-145738809D01*
X153016428Y-145700714D01*
X153054523Y-145624523D01*
X153054523Y-145434047D01*
X153016428Y-145357857D01*
X152978333Y-145319761D01*
X152902142Y-145281666D01*
X152749761Y-145281666D01*
X152673571Y-145319761D01*
X152635476Y-145357857D01*
X152597380Y-145434047D01*
X151073571Y-135616904D02*
X151073571Y-134816904D01*
X151378333Y-134816904D01*
X151454523Y-134855000D01*
X151492619Y-134893095D01*
X151530714Y-134969285D01*
X151530714Y-135083571D01*
X151492619Y-135159761D01*
X151454523Y-135197857D01*
X151378333Y-135235952D01*
X151073571Y-135235952D01*
X152292619Y-135616904D02*
X151835476Y-135616904D01*
X152064047Y-135616904D02*
X152064047Y-134816904D01*
X151987857Y-134931190D01*
X151911666Y-135007380D01*
X151835476Y-135045476D01*
X152673571Y-135616904D02*
X152825952Y-135616904D01*
X152902142Y-135578809D01*
X152940238Y-135540714D01*
X153016428Y-135426428D01*
X153054523Y-135274047D01*
X153054523Y-134969285D01*
X153016428Y-134893095D01*
X152978333Y-134855000D01*
X152902142Y-134816904D01*
X152749761Y-134816904D01*
X152673571Y-134855000D01*
X152635476Y-134893095D01*
X152597380Y-134969285D01*
X152597380Y-135159761D01*
X152635476Y-135235952D01*
X152673571Y-135274047D01*
X152749761Y-135312142D01*
X152902142Y-135312142D01*
X152978333Y-135274047D01*
X153016428Y-135235952D01*
X153054523Y-135159761D01*
X160673571Y-145776904D02*
X160673571Y-144976904D01*
X160978333Y-144976904D01*
X161054523Y-145015000D01*
X161092619Y-145053095D01*
X161130714Y-145129285D01*
X161130714Y-145243571D01*
X161092619Y-145319761D01*
X161054523Y-145357857D01*
X160978333Y-145395952D01*
X160673571Y-145395952D01*
X161625952Y-144976904D02*
X161702142Y-144976904D01*
X161778333Y-145015000D01*
X161816428Y-145053095D01*
X161854523Y-145129285D01*
X161892619Y-145281666D01*
X161892619Y-145472142D01*
X161854523Y-145624523D01*
X161816428Y-145700714D01*
X161778333Y-145738809D01*
X161702142Y-145776904D01*
X161625952Y-145776904D01*
X161549761Y-145738809D01*
X161511666Y-145700714D01*
X161473571Y-145624523D01*
X161435476Y-145472142D01*
X161435476Y-145281666D01*
X161473571Y-145129285D01*
X161511666Y-145053095D01*
X161549761Y-145015000D01*
X161625952Y-144976904D01*
X162349761Y-145319761D02*
X162273571Y-145281666D01*
X162235476Y-145243571D01*
X162197380Y-145167380D01*
X162197380Y-145129285D01*
X162235476Y-145053095D01*
X162273571Y-145015000D01*
X162349761Y-144976904D01*
X162502142Y-144976904D01*
X162578333Y-145015000D01*
X162616428Y-145053095D01*
X162654523Y-145129285D01*
X162654523Y-145167380D01*
X162616428Y-145243571D01*
X162578333Y-145281666D01*
X162502142Y-145319761D01*
X162349761Y-145319761D01*
X162273571Y-145357857D01*
X162235476Y-145395952D01*
X162197380Y-145472142D01*
X162197380Y-145624523D01*
X162235476Y-145700714D01*
X162273571Y-145738809D01*
X162349761Y-145776904D01*
X162502142Y-145776904D01*
X162578333Y-145738809D01*
X162616428Y-145700714D01*
X162654523Y-145624523D01*
X162654523Y-145472142D01*
X162616428Y-145395952D01*
X162578333Y-145357857D01*
X162502142Y-145319761D01*
X147955000Y-149225000D02*
X165735000Y-149225000D01*
X147955000Y-116205000D02*
X147955000Y-149225000D01*
X165735000Y-149225000D02*
X165735000Y-116205000D01*
X150495000Y-118745000D02*
X147955000Y-118745000D01*
X150495000Y-121285000D02*
X147955000Y-121285000D01*
X165735000Y-116205000D02*
X147955000Y-116205000D01*
X150495000Y-118745000D02*
X150495000Y-121285000D01*
D11*
X149225000Y-120015000D03*
D12*
X149225000Y-122555000D03*
X149225000Y-125095000D03*
X149225000Y-127635000D03*
X149225000Y-130175000D03*
X149225000Y-132715000D03*
X149225000Y-135255000D03*
X149225000Y-137795000D03*
X149225000Y-140335000D03*
X149225000Y-142875000D03*
X149225000Y-145415000D03*
X149225000Y-147955000D03*
X164465000Y-120015000D03*
X164465000Y-122555000D03*
X164465000Y-125095000D03*
X164465000Y-127635000D03*
X164465000Y-130175000D03*
X164465000Y-132715000D03*
X164465000Y-135255000D03*
X164465000Y-137795000D03*
X164465000Y-140335000D03*
X164465000Y-142875000D03*
X164465000Y-145415000D03*
X164465000Y-147955000D03*
%LPC*%
D13*
X127971443Y-160975065D03*
D14*
X122555000Y-160020000D03*
D13*
X117138557Y-159064935D03*
D15*
X118290824Y-155409490D03*
X128138902Y-157145971D03*
X123579524Y-154209634D03*
X123579524Y-154209634D03*
D14*
X59990000Y-141175000D03*
D13*
X54490000Y-141175000D03*
X65490000Y-141175000D03*
D15*
X64990000Y-137375000D03*
X54990000Y-137375000D03*
X59990000Y-135275000D03*
X59990000Y-135275000D03*
D13*
X102990000Y-128217500D03*
D14*
X97490000Y-128217500D03*
D13*
X91990000Y-128217500D03*
D15*
X92490000Y-124417500D03*
X102490000Y-124417500D03*
X97490000Y-122317500D03*
X97490000Y-122317500D03*
D13*
X65490000Y-105675000D03*
D14*
X59990000Y-105675000D03*
D13*
X54490000Y-105675000D03*
D15*
X54990000Y-101875000D03*
X64990000Y-101875000D03*
X59990000Y-99775000D03*
X59990000Y-99775000D03*
D13*
X140490000Y-123780000D03*
X129490000Y-123780000D03*
D14*
X134990000Y-123780000D03*
D15*
X129990000Y-119980000D03*
X139990000Y-119980000D03*
X134990000Y-117880000D03*
X134990000Y-117880000D03*
D14*
X78740000Y-97155000D03*
D13*
X84240000Y-97155000D03*
X73240000Y-97155000D03*
D15*
X73740000Y-93355000D03*
X83740000Y-93355000D03*
X78740000Y-91255000D03*
X78740000Y-91255000D03*
D13*
X91990000Y-92717500D03*
D14*
X97490000Y-92717500D03*
D13*
X102990000Y-92717500D03*
D15*
X92490000Y-88917500D03*
X102490000Y-88917500D03*
X97490000Y-86817500D03*
X97490000Y-86817500D03*
D13*
X54490000Y-123425000D03*
X65490000Y-123425000D03*
D14*
X59990000Y-123425000D03*
D15*
X64990000Y-119625000D03*
X54990000Y-119625000D03*
X59990000Y-117525000D03*
X59990000Y-117525000D03*
D13*
X137140489Y-163674664D03*
X147339511Y-167795336D03*
D14*
X142240000Y-165735000D03*
D15*
X139027586Y-160338668D03*
X148299424Y-164084734D03*
X144450179Y-160264615D03*
X144450179Y-160264615D03*
D14*
X116240000Y-101592500D03*
D13*
X110740000Y-101592500D03*
X121740000Y-101592500D03*
D15*
X121240000Y-97792500D03*
X111240000Y-97792500D03*
X116240000Y-95692500D03*
X116240000Y-95692500D03*
D13*
X129490000Y-106030000D03*
X140490000Y-106030000D03*
D14*
X134990000Y-106030000D03*
D15*
X129990000Y-102230000D03*
X139990000Y-102230000D03*
X134990000Y-100130000D03*
X134990000Y-100130000D03*
D13*
X102990000Y-110467500D03*
X91990000Y-110467500D03*
D14*
X97490000Y-110467500D03*
D15*
X92490000Y-106667500D03*
X102490000Y-106667500D03*
X97490000Y-104567500D03*
X97490000Y-104567500D03*
D13*
X84240000Y-132655000D03*
D14*
X78740000Y-132655000D03*
D13*
X73240000Y-132655000D03*
D15*
X73740000Y-128855000D03*
X83740000Y-128855000D03*
X78740000Y-126755000D03*
X78740000Y-126755000D03*
D16*
X157852500Y-155575000D03*
X164852500Y-155575000D03*
D17*
X155152500Y-153275000D03*
X156252500Y-157875000D03*
X160252500Y-157875000D03*
X163252500Y-157875000D03*
D13*
X129490000Y-141530000D03*
D14*
X134990000Y-141530000D03*
D13*
X140490000Y-141530000D03*
D15*
X139990000Y-137730000D03*
X129990000Y-137730000D03*
X134990000Y-135630000D03*
X134990000Y-135630000D03*
D13*
X121740000Y-137092500D03*
D14*
X116240000Y-137092500D03*
D13*
X110740000Y-137092500D03*
D15*
X121240000Y-133292500D03*
X111240000Y-133292500D03*
X116240000Y-131192500D03*
X116240000Y-131192500D03*
D11*
X149225000Y-120015000D03*
D12*
X149225000Y-122555000D03*
X149225000Y-125095000D03*
X149225000Y-127635000D03*
X149225000Y-130175000D03*
X149225000Y-132715000D03*
X149225000Y-135255000D03*
X149225000Y-137795000D03*
X149225000Y-140335000D03*
X149225000Y-142875000D03*
X149225000Y-145415000D03*
X149225000Y-147955000D03*
X164465000Y-120015000D03*
X164465000Y-122555000D03*
X164465000Y-125095000D03*
X164465000Y-127635000D03*
X164465000Y-130175000D03*
X164465000Y-132715000D03*
X164465000Y-135255000D03*
X164465000Y-137795000D03*
X164465000Y-140335000D03*
X164465000Y-142875000D03*
X164465000Y-145415000D03*
X164465000Y-147955000D03*
D13*
X84240000Y-114905000D03*
X73240000Y-114905000D03*
D14*
X78740000Y-114905000D03*
D15*
X83740000Y-111105000D03*
X73740000Y-111105000D03*
X78740000Y-109005000D03*
X78740000Y-109005000D03*
D14*
X116240000Y-119342500D03*
D13*
X121740000Y-119342500D03*
X110740000Y-119342500D03*
D15*
X111240000Y-115542500D03*
X121240000Y-115542500D03*
X116240000Y-113442500D03*
X116240000Y-113442500D03*
M02*
