M48
; DRILL file {KiCad (6.0.1)} date Fri 21 Jan 2022 03:59:14 PM EST
; FORMAT={-:-/ absolute / metric / decimal}
; #@! TF.CreationDate,2022-01-21T15:59:14-05:00
; #@! TF.GenerationSoftware,Kicad,Pcbnew,(6.0.1)
; #@! TF.FileFunction,Plated,1,2,PTH
FMAT,2
METRIC
; #@! TA.AperFunction,Plated,PTH,ViaDrill
T1C0.400
; #@! TA.AperFunction,Plated,PTH,ComponentDrill
T2C0.900
; #@! TA.AperFunction,Plated,PTH,ComponentDrill
T3C1.092
; #@! TA.AperFunction,Plated,PTH,ComponentDrill
T4C1.270
%
G90
G05
T1
X126.042Y-111.271
T3
X149.225Y-120.015
X149.225Y-122.555
X149.225Y-125.095
X149.225Y-127.635
X149.225Y-130.175
X149.225Y-132.715
X149.225Y-135.255
X149.225Y-137.795
X149.225Y-140.335
X149.225Y-142.875
X149.225Y-145.415
X149.225Y-147.955
X164.465Y-120.015
X164.465Y-122.555
X164.465Y-125.095
X164.465Y-127.635
X164.465Y-130.175
X164.465Y-132.715
X164.465Y-135.255
X164.465Y-137.795
X164.465Y-140.335
X164.465Y-142.875
X164.465Y-145.415
X164.465Y-147.955
T4
X54.99Y-101.875
X54.99Y-119.625
X54.99Y-137.375
X59.99Y-99.775
X59.99Y-99.775
X59.99Y-117.525
X59.99Y-117.525
X59.99Y-135.275
X59.99Y-135.275
X64.99Y-101.875
X64.99Y-119.625
X64.99Y-137.375
X73.74Y-93.355
X73.74Y-111.105
X73.74Y-128.855
X78.74Y-91.255
X78.74Y-91.255
X78.74Y-109.005
X78.74Y-109.005
X78.74Y-126.755
X78.74Y-126.755
X83.74Y-93.355
X83.74Y-111.105
X83.74Y-128.855
X92.49Y-88.917
X92.49Y-106.667
X92.49Y-124.417
X97.49Y-86.817
X97.49Y-86.817
X97.49Y-104.567
X97.49Y-104.567
X97.49Y-122.317
X97.49Y-122.317
X102.49Y-88.917
X102.49Y-106.667
X102.49Y-124.417
X111.24Y-97.792
X111.24Y-115.542
X111.24Y-133.292
X116.24Y-95.692
X116.24Y-95.692
X116.24Y-113.442
X116.24Y-113.442
X116.24Y-131.192
X116.24Y-131.192
X118.291Y-155.409
X121.24Y-97.792
X121.24Y-115.542
X121.24Y-133.292
X123.58Y-154.21
X123.58Y-154.21
X128.139Y-157.146
X129.99Y-102.23
X129.99Y-119.98
X129.99Y-137.73
X134.99Y-100.13
X134.99Y-100.13
X134.99Y-117.88
X134.99Y-117.88
X134.99Y-135.63
X134.99Y-135.63
X139.028Y-160.339
X139.99Y-102.23
X139.99Y-119.98
X139.99Y-137.73
X144.45Y-160.265
X144.45Y-160.265
X148.299Y-164.085
T2
X155.452Y-153.275G85X154.852Y-153.275
G05
X156.552Y-157.875G85X155.952Y-157.875
G05
X160.552Y-157.875G85X159.952Y-157.875
G05
X163.552Y-157.875G85X162.952Y-157.875
G05
T0
M30
