M48
; DRILL file {KiCad (6.0.1)} date Fri 21 Jan 2022 03:59:14 PM EST
; FORMAT={-:-/ absolute / metric / decimal}
; #@! TF.CreationDate,2022-01-21T15:59:14-05:00
; #@! TF.GenerationSoftware,Kicad,Pcbnew,(6.0.1)
; #@! TF.FileFunction,NonPlated,1,2,NPTH
FMAT,2
METRIC
; #@! TA.AperFunction,NonPlated,NPTH,ComponentDrill
T1C1.500
; #@! TA.AperFunction,NonPlated,NPTH,ComponentDrill
T2C1.702
; #@! TA.AperFunction,NonPlated,NPTH,ComponentDrill
T3C3.429
%
G90
G05
T1
X157.852Y-155.575
X164.852Y-155.575
T2
X54.49Y-105.675
X54.49Y-123.425
X54.49Y-141.175
X65.49Y-105.675
X65.49Y-123.425
X65.49Y-141.175
X73.24Y-97.155
X73.24Y-114.905
X73.24Y-132.655
X84.24Y-97.155
X84.24Y-114.905
X84.24Y-132.655
X91.99Y-92.718
X91.99Y-110.468
X91.99Y-128.218
X102.99Y-92.718
X102.99Y-110.468
X102.99Y-128.218
X110.74Y-101.593
X110.74Y-119.343
X110.74Y-137.093
X117.139Y-159.065
X121.74Y-101.593
X121.74Y-119.343
X121.74Y-137.093
X127.971Y-160.975
X129.49Y-106.03
X129.49Y-123.78
X129.49Y-141.53
X137.14Y-163.675
X140.49Y-106.03
X140.49Y-123.78
X140.49Y-141.53
X147.34Y-167.795
T3
X59.99Y-105.675
X59.99Y-123.425
X59.99Y-141.175
X78.74Y-97.155
X78.74Y-114.905
X78.74Y-132.655
X97.49Y-92.718
X97.49Y-110.468
X97.49Y-128.218
X116.24Y-101.593
X116.24Y-119.343
X116.24Y-137.093
X122.555Y-160.02
X134.99Y-106.03
X134.99Y-123.78
X134.99Y-141.53
X142.24Y-165.735
T0
M30
