%FSLAX45Y45*%
G04 Gerber Fmt 4.5, Leading zero omitted, Abs format (unit mm)*
G04 Created by KiCad (PCBNEW (6.0.1)) date 2022-01-21 15:59:15*
%MOMM*%
%LPD*%
G01*
G04 APERTURE LIST*
%TA.AperFunction,Profile*%
%ADD10C,0.150000*%
%TD*%
%ADD11C,0.200000*%
%ADD12C,0.150000*%
%ADD13C,0.170180*%
%ADD14C,0.342900*%
G04 APERTURE END LIST*
D10*
X14565868Y-9813440D02*
G75*
G03*
X14265868Y-9513440I-300000J0D01*
G01*
X10486500Y-14496750D02*
X10486500Y-14209250D01*
X12661500Y-9415500D02*
G75*
G03*
X12761500Y-9515500I100000J0D01*
G01*
X10786500Y-8484250D02*
G75*
G03*
X10486500Y-8184250I-300000J0D01*
G01*
X16636500Y-11684000D02*
G75*
G03*
X16573500Y-11581368I-87502J16940D01*
G01*
X8311500Y-8628000D02*
G75*
G03*
X8611500Y-8328000I0J300000D01*
G01*
X12661500Y-9371750D02*
X12661500Y-9415500D01*
X6736500Y-9180000D02*
X6736500Y-8928000D01*
X8711500Y-8184250D02*
X10486500Y-8184250D01*
X10786500Y-8771750D02*
G75*
G03*
X11086500Y-9071750I300000J0D01*
G01*
X14866197Y-11581368D02*
X16573500Y-11581368D01*
X7036500Y-8628000D02*
G75*
G03*
X6736500Y-8928000I0J-300000D01*
G01*
X16510000Y-16129000D02*
G75*
G03*
X16637000Y-15875000I-244625J281063D01*
G01*
X9211500Y-13909250D02*
G75*
G03*
X8911500Y-14209250I0J-300000D01*
G01*
X11049000Y-16700500D02*
G75*
G03*
X11239500Y-16891000I306697J116197D01*
G01*
X6736500Y-15205000D02*
G75*
G03*
X7036500Y-14905000I0J300000D01*
G01*
X8711500Y-8184250D02*
G75*
G03*
X8611500Y-8284250I0J-100000D01*
G01*
X14859000Y-17653000D02*
X16510000Y-16129000D01*
X10786500Y-8484250D02*
X10786500Y-8771750D01*
X8911500Y-14209250D02*
X8911500Y-14253000D01*
X4861500Y-14905000D02*
X4861500Y-9780000D01*
X6436500Y-9480000D02*
G75*
G03*
X6736500Y-9180000I0J300000D01*
G01*
X8811500Y-14353000D02*
G75*
G03*
X8911500Y-14253000I0J100000D01*
G01*
X5161500Y-9480000D02*
G75*
G03*
X4861500Y-9780000I0J-300000D01*
G01*
X11049000Y-16700500D02*
X10486500Y-14496750D01*
X14541500Y-17716500D02*
G75*
G03*
X14859000Y-17653000I97889J336057D01*
G01*
X14565868Y-9813440D02*
X14566197Y-11281368D01*
X7336500Y-14353000D02*
X8811500Y-14353000D01*
X14566197Y-11281368D02*
G75*
G03*
X14866197Y-11581368I300000J0D01*
G01*
X9211500Y-13909250D02*
X10186500Y-13909250D01*
X16637000Y-15875000D02*
X16636500Y-11684000D01*
X11239500Y-16891000D02*
X14541500Y-17716500D01*
X5161500Y-15205000D02*
X6736500Y-15205000D01*
X4861500Y-14905000D02*
G75*
G03*
X5161500Y-15205000I300000J0D01*
G01*
X11086500Y-9071750D02*
X12361500Y-9071750D01*
X12761500Y-9515500D02*
X14265868Y-9513440D01*
X5161500Y-9480000D02*
X6436500Y-9480000D01*
X8611500Y-8328000D02*
X8611500Y-8284250D01*
X7336500Y-14353000D02*
G75*
G03*
X7036500Y-14653000I0J-300000D01*
G01*
X7036500Y-8628000D02*
X8311500Y-8628000D01*
X10486500Y-14209250D02*
G75*
G03*
X10186500Y-13909250I-300000J0D01*
G01*
X12661500Y-9371750D02*
G75*
G03*
X12361500Y-9071750I-300000J0D01*
G01*
X7036500Y-14653000D02*
X7036500Y-14905000D01*
D11*
D12*
X15710250Y-15482500D02*
X15860250Y-15632500D01*
X15860250Y-15482500D02*
X15710250Y-15632500D01*
X16410250Y-15482500D02*
X16560250Y-15632500D01*
X16560250Y-15482500D02*
X16410250Y-15632500D01*
D13*
X5534090Y-10567500D02*
G75*
G03*
X5534090Y-10567500I-85090J0D01*
G01*
X5534090Y-12342500D02*
G75*
G03*
X5534090Y-12342500I-85090J0D01*
G01*
X5534090Y-14117500D02*
G75*
G03*
X5534090Y-14117500I-85090J0D01*
G01*
X6634090Y-10567500D02*
G75*
G03*
X6634090Y-10567500I-85090J0D01*
G01*
X6634090Y-12342500D02*
G75*
G03*
X6634090Y-12342500I-85090J0D01*
G01*
X6634090Y-14117500D02*
G75*
G03*
X6634090Y-14117500I-85090J0D01*
G01*
X7409090Y-9715500D02*
G75*
G03*
X7409090Y-9715500I-85090J0D01*
G01*
X7409090Y-11490500D02*
G75*
G03*
X7409090Y-11490500I-85090J0D01*
G01*
X7409090Y-13265500D02*
G75*
G03*
X7409090Y-13265500I-85090J0D01*
G01*
X8509090Y-9715500D02*
G75*
G03*
X8509090Y-9715500I-85090J0D01*
G01*
X8509090Y-11490500D02*
G75*
G03*
X8509090Y-11490500I-85090J0D01*
G01*
X8509090Y-13265500D02*
G75*
G03*
X8509090Y-13265500I-85090J0D01*
G01*
X9284090Y-9271750D02*
G75*
G03*
X9284090Y-9271750I-85090J0D01*
G01*
X9284090Y-11046750D02*
G75*
G03*
X9284090Y-11046750I-85090J0D01*
G01*
X9284090Y-12821750D02*
G75*
G03*
X9284090Y-12821750I-85090J0D01*
G01*
X10384090Y-9271750D02*
G75*
G03*
X10384090Y-9271750I-85090J0D01*
G01*
X10384090Y-11046750D02*
G75*
G03*
X10384090Y-11046750I-85090J0D01*
G01*
X10384090Y-12821750D02*
G75*
G03*
X10384090Y-12821750I-85090J0D01*
G01*
X11159090Y-10159250D02*
G75*
G03*
X11159090Y-10159250I-85090J0D01*
G01*
X11159090Y-11934250D02*
G75*
G03*
X11159090Y-11934250I-85090J0D01*
G01*
X11159090Y-13709250D02*
G75*
G03*
X11159090Y-13709250I-85090J0D01*
G01*
X11798946Y-15906493D02*
G75*
G03*
X11798946Y-15906493I-85090J0D01*
G01*
X12259090Y-10159250D02*
G75*
G03*
X12259090Y-10159250I-85090J0D01*
G01*
X12259090Y-11934250D02*
G75*
G03*
X12259090Y-11934250I-85090J0D01*
G01*
X12259090Y-13709250D02*
G75*
G03*
X12259090Y-13709250I-85090J0D01*
G01*
X12882234Y-16097506D02*
G75*
G03*
X12882234Y-16097506I-85090J0D01*
G01*
X13034090Y-10603000D02*
G75*
G03*
X13034090Y-10603000I-85090J0D01*
G01*
X13034090Y-12378000D02*
G75*
G03*
X13034090Y-12378000I-85090J0D01*
G01*
X13034090Y-14153000D02*
G75*
G03*
X13034090Y-14153000I-85090J0D01*
G01*
X13799139Y-16367466D02*
G75*
G03*
X13799139Y-16367466I-85090J0D01*
G01*
X14134090Y-10603000D02*
G75*
G03*
X14134090Y-10603000I-85090J0D01*
G01*
X14134090Y-12378000D02*
G75*
G03*
X14134090Y-12378000I-85090J0D01*
G01*
X14134090Y-14153000D02*
G75*
G03*
X14134090Y-14153000I-85090J0D01*
G01*
X14819041Y-16779534D02*
G75*
G03*
X14819041Y-16779534I-85090J0D01*
G01*
D14*
X5999000Y-10396050D02*
X5999000Y-10738950D01*
X5827550Y-10567500D02*
X6170450Y-10567500D01*
X5999000Y-12171050D02*
X5999000Y-12513950D01*
X5827550Y-12342500D02*
X6170450Y-12342500D01*
X5999000Y-13946050D02*
X5999000Y-14288950D01*
X5827550Y-14117500D02*
X6170450Y-14117500D01*
X7874000Y-9544050D02*
X7874000Y-9886950D01*
X7702550Y-9715500D02*
X8045450Y-9715500D01*
X7874000Y-11319050D02*
X7874000Y-11661950D01*
X7702550Y-11490500D02*
X8045450Y-11490500D01*
X7874000Y-13094050D02*
X7874000Y-13436950D01*
X7702550Y-13265500D02*
X8045450Y-13265500D01*
X9749000Y-9100300D02*
X9749000Y-9443200D01*
X9577550Y-9271750D02*
X9920450Y-9271750D01*
X9749000Y-10875300D02*
X9749000Y-11218200D01*
X9577550Y-11046750D02*
X9920450Y-11046750D01*
X9749000Y-12650300D02*
X9749000Y-12993200D01*
X9577550Y-12821750D02*
X9920450Y-12821750D01*
X11624000Y-9987800D02*
X11624000Y-10330700D01*
X11452550Y-10159250D02*
X11795450Y-10159250D01*
X11624000Y-11762800D02*
X11624000Y-12105700D01*
X11452550Y-11934250D02*
X11795450Y-11934250D01*
X11624000Y-13537800D02*
X11624000Y-13880700D01*
X11452550Y-13709250D02*
X11795450Y-13709250D01*
X12255500Y-15830550D02*
X12255500Y-16173450D01*
X12084050Y-16002000D02*
X12426950Y-16002000D01*
X13499000Y-10431550D02*
X13499000Y-10774450D01*
X13327550Y-10603000D02*
X13670450Y-10603000D01*
X13499000Y-12206550D02*
X13499000Y-12549450D01*
X13327550Y-12378000D02*
X13670450Y-12378000D01*
X13499000Y-13981550D02*
X13499000Y-14324450D01*
X13327550Y-14153000D02*
X13670450Y-14153000D01*
X14224000Y-16402050D02*
X14224000Y-16744950D01*
X14052550Y-16573500D02*
X14395450Y-16573500D01*
D11*
X5111619Y-18048443D02*
X5111619Y-17848443D01*
X5159238Y-17848443D01*
X5187810Y-17857967D01*
X5206857Y-17877014D01*
X5216381Y-17896062D01*
X5225905Y-17934157D01*
X5225905Y-17962728D01*
X5216381Y-18000824D01*
X5206857Y-18019871D01*
X5187810Y-18038919D01*
X5159238Y-18048443D01*
X5111619Y-18048443D01*
X5311619Y-18048443D02*
X5311619Y-17915109D01*
X5311619Y-17953205D02*
X5321143Y-17934157D01*
X5330667Y-17924633D01*
X5349714Y-17915109D01*
X5368762Y-17915109D01*
X5435429Y-18048443D02*
X5435429Y-17915109D01*
X5435429Y-17848443D02*
X5425905Y-17857967D01*
X5435429Y-17867490D01*
X5444952Y-17857967D01*
X5435429Y-17848443D01*
X5435429Y-17867490D01*
X5559238Y-18048443D02*
X5540190Y-18038919D01*
X5530667Y-18019871D01*
X5530667Y-17848443D01*
X5664000Y-18048443D02*
X5644952Y-18038919D01*
X5635428Y-18019871D01*
X5635428Y-17848443D01*
X5892571Y-18048443D02*
X5892571Y-17848443D01*
X5959238Y-17991300D01*
X6025905Y-17848443D01*
X6025905Y-18048443D01*
X6206857Y-18048443D02*
X6206857Y-17943681D01*
X6197333Y-17924633D01*
X6178286Y-17915109D01*
X6140190Y-17915109D01*
X6121143Y-17924633D01*
X6206857Y-18038919D02*
X6187809Y-18048443D01*
X6140190Y-18048443D01*
X6121143Y-18038919D01*
X6111619Y-18019871D01*
X6111619Y-18000824D01*
X6121143Y-17981776D01*
X6140190Y-17972252D01*
X6187809Y-17972252D01*
X6206857Y-17962728D01*
X6302095Y-17915109D02*
X6302095Y-18115109D01*
X6302095Y-17924633D02*
X6321143Y-17915109D01*
X6359238Y-17915109D01*
X6378286Y-17924633D01*
X6387809Y-17934157D01*
X6397333Y-17953205D01*
X6397333Y-18010347D01*
X6387809Y-18029395D01*
X6378286Y-18038919D01*
X6359238Y-18048443D01*
X6321143Y-18048443D01*
X6302095Y-18038919D01*
X6483048Y-18029395D02*
X6492571Y-18038919D01*
X6483048Y-18048443D01*
X6473524Y-18038919D01*
X6483048Y-18029395D01*
X6483048Y-18048443D01*
X6483048Y-17924633D02*
X6492571Y-17934157D01*
X6483048Y-17943681D01*
X6473524Y-17934157D01*
X6483048Y-17924633D01*
X6483048Y-17943681D01*
D12*
X4704000Y-18302967D02*
X4854000Y-18452967D01*
X4854000Y-18302967D02*
X4704000Y-18452967D01*
D11*
X5216381Y-18468443D02*
X5102095Y-18468443D01*
X5159238Y-18468443D02*
X5159238Y-18268443D01*
X5140190Y-18297014D01*
X5121143Y-18316062D01*
X5102095Y-18325586D01*
X5302095Y-18449395D02*
X5311619Y-18458919D01*
X5302095Y-18468443D01*
X5292571Y-18458919D01*
X5302095Y-18449395D01*
X5302095Y-18468443D01*
X5492571Y-18268443D02*
X5397333Y-18268443D01*
X5387810Y-18363681D01*
X5397333Y-18354157D01*
X5416381Y-18344633D01*
X5464000Y-18344633D01*
X5483048Y-18354157D01*
X5492571Y-18363681D01*
X5502095Y-18382728D01*
X5502095Y-18430347D01*
X5492571Y-18449395D01*
X5483048Y-18458919D01*
X5464000Y-18468443D01*
X5416381Y-18468443D01*
X5397333Y-18458919D01*
X5387810Y-18449395D01*
X5625905Y-18268443D02*
X5644952Y-18268443D01*
X5664000Y-18277967D01*
X5673524Y-18287490D01*
X5683048Y-18306538D01*
X5692571Y-18344633D01*
X5692571Y-18392252D01*
X5683048Y-18430347D01*
X5673524Y-18449395D01*
X5664000Y-18458919D01*
X5644952Y-18468443D01*
X5625905Y-18468443D01*
X5606857Y-18458919D01*
X5597333Y-18449395D01*
X5587810Y-18430347D01*
X5578286Y-18392252D01*
X5578286Y-18344633D01*
X5587810Y-18306538D01*
X5597333Y-18287490D01*
X5606857Y-18277967D01*
X5625905Y-18268443D01*
X5816381Y-18268443D02*
X5835428Y-18268443D01*
X5854476Y-18277967D01*
X5864000Y-18287490D01*
X5873524Y-18306538D01*
X5883048Y-18344633D01*
X5883048Y-18392252D01*
X5873524Y-18430347D01*
X5864000Y-18449395D01*
X5854476Y-18458919D01*
X5835428Y-18468443D01*
X5816381Y-18468443D01*
X5797333Y-18458919D01*
X5787809Y-18449395D01*
X5778286Y-18430347D01*
X5768762Y-18392252D01*
X5768762Y-18344633D01*
X5778286Y-18306538D01*
X5787809Y-18287490D01*
X5797333Y-18277967D01*
X5816381Y-18268443D01*
X5968762Y-18468443D02*
X5968762Y-18335109D01*
X5968762Y-18354157D02*
X5978286Y-18344633D01*
X5997333Y-18335109D01*
X6025905Y-18335109D01*
X6044952Y-18344633D01*
X6054476Y-18363681D01*
X6054476Y-18468443D01*
X6054476Y-18363681D02*
X6064000Y-18344633D01*
X6083048Y-18335109D01*
X6111619Y-18335109D01*
X6130667Y-18344633D01*
X6140190Y-18363681D01*
X6140190Y-18468443D01*
X6235428Y-18468443D02*
X6235428Y-18335109D01*
X6235428Y-18354157D02*
X6244952Y-18344633D01*
X6264000Y-18335109D01*
X6292571Y-18335109D01*
X6311619Y-18344633D01*
X6321143Y-18363681D01*
X6321143Y-18468443D01*
X6321143Y-18363681D02*
X6330667Y-18344633D01*
X6349714Y-18335109D01*
X6378286Y-18335109D01*
X6397333Y-18344633D01*
X6406857Y-18363681D01*
X6406857Y-18468443D01*
X6797333Y-18258919D02*
X6625905Y-18516062D01*
X7054476Y-18268443D02*
X7073524Y-18268443D01*
X7092571Y-18277967D01*
X7102095Y-18287490D01*
X7111619Y-18306538D01*
X7121143Y-18344633D01*
X7121143Y-18392252D01*
X7111619Y-18430347D01*
X7102095Y-18449395D01*
X7092571Y-18458919D01*
X7073524Y-18468443D01*
X7054476Y-18468443D01*
X7035428Y-18458919D01*
X7025905Y-18449395D01*
X7016381Y-18430347D01*
X7006857Y-18392252D01*
X7006857Y-18344633D01*
X7016381Y-18306538D01*
X7025905Y-18287490D01*
X7035428Y-18277967D01*
X7054476Y-18268443D01*
X7206857Y-18449395D02*
X7216381Y-18458919D01*
X7206857Y-18468443D01*
X7197333Y-18458919D01*
X7206857Y-18449395D01*
X7206857Y-18468443D01*
X7340190Y-18268443D02*
X7359238Y-18268443D01*
X7378286Y-18277967D01*
X7387809Y-18287490D01*
X7397333Y-18306538D01*
X7406857Y-18344633D01*
X7406857Y-18392252D01*
X7397333Y-18430347D01*
X7387809Y-18449395D01*
X7378286Y-18458919D01*
X7359238Y-18468443D01*
X7340190Y-18468443D01*
X7321143Y-18458919D01*
X7311619Y-18449395D01*
X7302095Y-18430347D01*
X7292571Y-18392252D01*
X7292571Y-18344633D01*
X7302095Y-18306538D01*
X7311619Y-18287490D01*
X7321143Y-18277967D01*
X7340190Y-18268443D01*
X7587809Y-18268443D02*
X7492571Y-18268443D01*
X7483048Y-18363681D01*
X7492571Y-18354157D01*
X7511619Y-18344633D01*
X7559238Y-18344633D01*
X7578286Y-18354157D01*
X7587809Y-18363681D01*
X7597333Y-18382728D01*
X7597333Y-18430347D01*
X7587809Y-18449395D01*
X7578286Y-18458919D01*
X7559238Y-18468443D01*
X7511619Y-18468443D01*
X7492571Y-18458919D01*
X7483048Y-18449395D01*
X7692571Y-18468443D02*
X7730667Y-18468443D01*
X7749714Y-18458919D01*
X7759238Y-18449395D01*
X7778286Y-18420824D01*
X7787809Y-18382728D01*
X7787809Y-18306538D01*
X7778286Y-18287490D01*
X7768762Y-18277967D01*
X7749714Y-18268443D01*
X7711619Y-18268443D01*
X7692571Y-18277967D01*
X7683048Y-18287490D01*
X7673524Y-18306538D01*
X7673524Y-18354157D01*
X7683048Y-18373205D01*
X7692571Y-18382728D01*
X7711619Y-18392252D01*
X7749714Y-18392252D01*
X7768762Y-18382728D01*
X7778286Y-18373205D01*
X7787809Y-18354157D01*
X7978286Y-18468443D02*
X7864000Y-18468443D01*
X7921143Y-18468443D02*
X7921143Y-18268443D01*
X7902095Y-18297014D01*
X7883048Y-18316062D01*
X7864000Y-18325586D01*
X8054476Y-18268443D02*
X8054476Y-18306538D01*
X8130667Y-18268443D02*
X8130667Y-18306538D01*
X8425905Y-18544633D02*
X8416381Y-18535109D01*
X8397333Y-18506538D01*
X8387809Y-18487490D01*
X8378286Y-18458919D01*
X8368762Y-18411300D01*
X8368762Y-18373205D01*
X8378286Y-18325586D01*
X8387809Y-18297014D01*
X8397333Y-18277967D01*
X8416381Y-18249395D01*
X8425905Y-18239871D01*
X8492571Y-18287490D02*
X8502095Y-18277967D01*
X8521143Y-18268443D01*
X8568762Y-18268443D01*
X8587810Y-18277967D01*
X8597333Y-18287490D01*
X8606857Y-18306538D01*
X8606857Y-18325586D01*
X8597333Y-18354157D01*
X8483048Y-18468443D01*
X8606857Y-18468443D01*
X8844952Y-18468443D02*
X8844952Y-18268443D01*
X8930667Y-18468443D02*
X8930667Y-18363681D01*
X8921143Y-18344633D01*
X8902095Y-18335109D01*
X8873524Y-18335109D01*
X8854476Y-18344633D01*
X8844952Y-18354157D01*
X9054476Y-18468443D02*
X9035429Y-18458919D01*
X9025905Y-18449395D01*
X9016381Y-18430347D01*
X9016381Y-18373205D01*
X9025905Y-18354157D01*
X9035429Y-18344633D01*
X9054476Y-18335109D01*
X9083048Y-18335109D01*
X9102095Y-18344633D01*
X9111619Y-18354157D01*
X9121143Y-18373205D01*
X9121143Y-18430347D01*
X9111619Y-18449395D01*
X9102095Y-18458919D01*
X9083048Y-18468443D01*
X9054476Y-18468443D01*
X9235429Y-18468443D02*
X9216381Y-18458919D01*
X9206857Y-18439871D01*
X9206857Y-18268443D01*
X9387810Y-18458919D02*
X9368762Y-18468443D01*
X9330667Y-18468443D01*
X9311619Y-18458919D01*
X9302095Y-18439871D01*
X9302095Y-18363681D01*
X9311619Y-18344633D01*
X9330667Y-18335109D01*
X9368762Y-18335109D01*
X9387810Y-18344633D01*
X9397333Y-18363681D01*
X9397333Y-18382728D01*
X9302095Y-18401776D01*
X9473524Y-18458919D02*
X9492571Y-18468443D01*
X9530667Y-18468443D01*
X9549714Y-18458919D01*
X9559238Y-18439871D01*
X9559238Y-18430347D01*
X9549714Y-18411300D01*
X9530667Y-18401776D01*
X9502095Y-18401776D01*
X9483048Y-18392252D01*
X9473524Y-18373205D01*
X9473524Y-18363681D01*
X9483048Y-18344633D01*
X9502095Y-18335109D01*
X9530667Y-18335109D01*
X9549714Y-18344633D01*
X9625905Y-18544633D02*
X9635429Y-18535109D01*
X9654476Y-18506538D01*
X9664000Y-18487490D01*
X9673524Y-18458919D01*
X9683048Y-18411300D01*
X9683048Y-18373205D01*
X9673524Y-18325586D01*
X9664000Y-18297014D01*
X9654476Y-18277967D01*
X9635429Y-18249395D01*
X9625905Y-18239871D01*
X9987810Y-18544633D02*
X9978286Y-18535109D01*
X9959238Y-18506538D01*
X9949714Y-18487490D01*
X9940190Y-18458919D01*
X9930667Y-18411300D01*
X9930667Y-18373205D01*
X9940190Y-18325586D01*
X9949714Y-18297014D01*
X9959238Y-18277967D01*
X9978286Y-18249395D01*
X9987810Y-18239871D01*
X10064000Y-18335109D02*
X10064000Y-18468443D01*
X10064000Y-18354157D02*
X10073524Y-18344633D01*
X10092571Y-18335109D01*
X10121143Y-18335109D01*
X10140190Y-18344633D01*
X10149714Y-18363681D01*
X10149714Y-18468443D01*
X10273524Y-18468443D02*
X10254476Y-18458919D01*
X10244952Y-18449395D01*
X10235429Y-18430347D01*
X10235429Y-18373205D01*
X10244952Y-18354157D01*
X10254476Y-18344633D01*
X10273524Y-18335109D01*
X10302095Y-18335109D01*
X10321143Y-18344633D01*
X10330667Y-18354157D01*
X10340190Y-18373205D01*
X10340190Y-18430347D01*
X10330667Y-18449395D01*
X10321143Y-18458919D01*
X10302095Y-18468443D01*
X10273524Y-18468443D01*
X10397333Y-18335109D02*
X10473524Y-18335109D01*
X10425905Y-18268443D02*
X10425905Y-18439871D01*
X10435429Y-18458919D01*
X10454476Y-18468443D01*
X10473524Y-18468443D01*
X10692571Y-18335109D02*
X10692571Y-18535109D01*
X10692571Y-18344633D02*
X10711619Y-18335109D01*
X10749714Y-18335109D01*
X10768762Y-18344633D01*
X10778286Y-18354157D01*
X10787810Y-18373205D01*
X10787810Y-18430347D01*
X10778286Y-18449395D01*
X10768762Y-18458919D01*
X10749714Y-18468443D01*
X10711619Y-18468443D01*
X10692571Y-18458919D01*
X10902095Y-18468443D02*
X10883048Y-18458919D01*
X10873524Y-18439871D01*
X10873524Y-18268443D01*
X11064000Y-18468443D02*
X11064000Y-18363681D01*
X11054476Y-18344633D01*
X11035429Y-18335109D01*
X10997333Y-18335109D01*
X10978286Y-18344633D01*
X11064000Y-18458919D02*
X11044952Y-18468443D01*
X10997333Y-18468443D01*
X10978286Y-18458919D01*
X10968762Y-18439871D01*
X10968762Y-18420824D01*
X10978286Y-18401776D01*
X10997333Y-18392252D01*
X11044952Y-18392252D01*
X11064000Y-18382728D01*
X11130667Y-18335109D02*
X11206857Y-18335109D01*
X11159238Y-18268443D02*
X11159238Y-18439871D01*
X11168762Y-18458919D01*
X11187809Y-18468443D01*
X11206857Y-18468443D01*
X11349714Y-18458919D02*
X11330667Y-18468443D01*
X11292571Y-18468443D01*
X11273524Y-18458919D01*
X11264000Y-18439871D01*
X11264000Y-18363681D01*
X11273524Y-18344633D01*
X11292571Y-18335109D01*
X11330667Y-18335109D01*
X11349714Y-18344633D01*
X11359238Y-18363681D01*
X11359238Y-18382728D01*
X11264000Y-18401776D01*
X11530667Y-18468443D02*
X11530667Y-18268443D01*
X11530667Y-18458919D02*
X11511619Y-18468443D01*
X11473524Y-18468443D01*
X11454476Y-18458919D01*
X11444952Y-18449395D01*
X11435428Y-18430347D01*
X11435428Y-18373205D01*
X11444952Y-18354157D01*
X11454476Y-18344633D01*
X11473524Y-18335109D01*
X11511619Y-18335109D01*
X11530667Y-18344633D01*
X11606857Y-18544633D02*
X11616381Y-18535109D01*
X11635428Y-18506538D01*
X11644952Y-18487490D01*
X11654476Y-18458919D01*
X11664000Y-18411300D01*
X11664000Y-18373205D01*
X11654476Y-18325586D01*
X11644952Y-18297014D01*
X11635428Y-18277967D01*
X11616381Y-18249395D01*
X11606857Y-18239871D01*
D13*
X4854000Y-18647967D02*
G75*
G03*
X4854000Y-18647967I-85090J0D01*
G01*
D11*
X5216381Y-18738443D02*
X5102095Y-18738443D01*
X5159238Y-18738443D02*
X5159238Y-18538443D01*
X5140190Y-18567014D01*
X5121143Y-18586062D01*
X5102095Y-18595586D01*
X5302095Y-18719395D02*
X5311619Y-18728919D01*
X5302095Y-18738443D01*
X5292571Y-18728919D01*
X5302095Y-18719395D01*
X5302095Y-18738443D01*
X5378286Y-18538443D02*
X5511619Y-18538443D01*
X5425905Y-18738443D01*
X5625905Y-18538443D02*
X5644952Y-18538443D01*
X5664000Y-18547967D01*
X5673524Y-18557490D01*
X5683048Y-18576538D01*
X5692571Y-18614633D01*
X5692571Y-18662252D01*
X5683048Y-18700347D01*
X5673524Y-18719395D01*
X5664000Y-18728919D01*
X5644952Y-18738443D01*
X5625905Y-18738443D01*
X5606857Y-18728919D01*
X5597333Y-18719395D01*
X5587810Y-18700347D01*
X5578286Y-18662252D01*
X5578286Y-18614633D01*
X5587810Y-18576538D01*
X5597333Y-18557490D01*
X5606857Y-18547967D01*
X5625905Y-18538443D01*
X5768762Y-18557490D02*
X5778286Y-18547967D01*
X5797333Y-18538443D01*
X5844952Y-18538443D01*
X5864000Y-18547967D01*
X5873524Y-18557490D01*
X5883048Y-18576538D01*
X5883048Y-18595586D01*
X5873524Y-18624157D01*
X5759238Y-18738443D01*
X5883048Y-18738443D01*
X5968762Y-18738443D02*
X5968762Y-18605109D01*
X5968762Y-18624157D02*
X5978286Y-18614633D01*
X5997333Y-18605109D01*
X6025905Y-18605109D01*
X6044952Y-18614633D01*
X6054476Y-18633681D01*
X6054476Y-18738443D01*
X6054476Y-18633681D02*
X6064000Y-18614633D01*
X6083048Y-18605109D01*
X6111619Y-18605109D01*
X6130667Y-18614633D01*
X6140190Y-18633681D01*
X6140190Y-18738443D01*
X6235428Y-18738443D02*
X6235428Y-18605109D01*
X6235428Y-18624157D02*
X6244952Y-18614633D01*
X6264000Y-18605109D01*
X6292571Y-18605109D01*
X6311619Y-18614633D01*
X6321143Y-18633681D01*
X6321143Y-18738443D01*
X6321143Y-18633681D02*
X6330667Y-18614633D01*
X6349714Y-18605109D01*
X6378286Y-18605109D01*
X6397333Y-18614633D01*
X6406857Y-18633681D01*
X6406857Y-18738443D01*
X6797333Y-18528919D02*
X6625905Y-18786062D01*
X7054476Y-18538443D02*
X7073524Y-18538443D01*
X7092571Y-18547967D01*
X7102095Y-18557490D01*
X7111619Y-18576538D01*
X7121143Y-18614633D01*
X7121143Y-18662252D01*
X7111619Y-18700347D01*
X7102095Y-18719395D01*
X7092571Y-18728919D01*
X7073524Y-18738443D01*
X7054476Y-18738443D01*
X7035428Y-18728919D01*
X7025905Y-18719395D01*
X7016381Y-18700347D01*
X7006857Y-18662252D01*
X7006857Y-18614633D01*
X7016381Y-18576538D01*
X7025905Y-18557490D01*
X7035428Y-18547967D01*
X7054476Y-18538443D01*
X7206857Y-18719395D02*
X7216381Y-18728919D01*
X7206857Y-18738443D01*
X7197333Y-18728919D01*
X7206857Y-18719395D01*
X7206857Y-18738443D01*
X7340190Y-18538443D02*
X7359238Y-18538443D01*
X7378286Y-18547967D01*
X7387809Y-18557490D01*
X7397333Y-18576538D01*
X7406857Y-18614633D01*
X7406857Y-18662252D01*
X7397333Y-18700347D01*
X7387809Y-18719395D01*
X7378286Y-18728919D01*
X7359238Y-18738443D01*
X7340190Y-18738443D01*
X7321143Y-18728919D01*
X7311619Y-18719395D01*
X7302095Y-18700347D01*
X7292571Y-18662252D01*
X7292571Y-18614633D01*
X7302095Y-18576538D01*
X7311619Y-18557490D01*
X7321143Y-18547967D01*
X7340190Y-18538443D01*
X7578286Y-18538443D02*
X7540190Y-18538443D01*
X7521143Y-18547967D01*
X7511619Y-18557490D01*
X7492571Y-18586062D01*
X7483048Y-18624157D01*
X7483048Y-18700347D01*
X7492571Y-18719395D01*
X7502095Y-18728919D01*
X7521143Y-18738443D01*
X7559238Y-18738443D01*
X7578286Y-18728919D01*
X7587809Y-18719395D01*
X7597333Y-18700347D01*
X7597333Y-18652728D01*
X7587809Y-18633681D01*
X7578286Y-18624157D01*
X7559238Y-18614633D01*
X7521143Y-18614633D01*
X7502095Y-18624157D01*
X7492571Y-18633681D01*
X7483048Y-18652728D01*
X7664000Y-18538443D02*
X7797333Y-18538443D01*
X7711619Y-18738443D01*
X7911619Y-18538443D02*
X7930667Y-18538443D01*
X7949714Y-18547967D01*
X7959238Y-18557490D01*
X7968762Y-18576538D01*
X7978286Y-18614633D01*
X7978286Y-18662252D01*
X7968762Y-18700347D01*
X7959238Y-18719395D01*
X7949714Y-18728919D01*
X7930667Y-18738443D01*
X7911619Y-18738443D01*
X7892571Y-18728919D01*
X7883048Y-18719395D01*
X7873524Y-18700347D01*
X7864000Y-18662252D01*
X7864000Y-18614633D01*
X7873524Y-18576538D01*
X7883048Y-18557490D01*
X7892571Y-18547967D01*
X7911619Y-18538443D01*
X8054476Y-18538443D02*
X8054476Y-18576538D01*
X8130667Y-18538443D02*
X8130667Y-18576538D01*
X8425905Y-18814633D02*
X8416381Y-18805109D01*
X8397333Y-18776538D01*
X8387809Y-18757490D01*
X8378286Y-18728919D01*
X8368762Y-18681300D01*
X8368762Y-18643205D01*
X8378286Y-18595586D01*
X8387809Y-18567014D01*
X8397333Y-18547967D01*
X8416381Y-18519395D01*
X8425905Y-18509871D01*
X8483048Y-18538443D02*
X8606857Y-18538443D01*
X8540190Y-18614633D01*
X8568762Y-18614633D01*
X8587810Y-18624157D01*
X8597333Y-18633681D01*
X8606857Y-18652728D01*
X8606857Y-18700347D01*
X8597333Y-18719395D01*
X8587810Y-18728919D01*
X8568762Y-18738443D01*
X8511619Y-18738443D01*
X8492571Y-18728919D01*
X8483048Y-18719395D01*
X8778286Y-18605109D02*
X8778286Y-18738443D01*
X8730667Y-18528919D02*
X8683048Y-18671776D01*
X8806857Y-18671776D01*
X9035429Y-18738443D02*
X9035429Y-18538443D01*
X9121143Y-18738443D02*
X9121143Y-18633681D01*
X9111619Y-18614633D01*
X9092571Y-18605109D01*
X9064000Y-18605109D01*
X9044952Y-18614633D01*
X9035429Y-18624157D01*
X9244952Y-18738443D02*
X9225905Y-18728919D01*
X9216381Y-18719395D01*
X9206857Y-18700347D01*
X9206857Y-18643205D01*
X9216381Y-18624157D01*
X9225905Y-18614633D01*
X9244952Y-18605109D01*
X9273524Y-18605109D01*
X9292571Y-18614633D01*
X9302095Y-18624157D01*
X9311619Y-18643205D01*
X9311619Y-18700347D01*
X9302095Y-18719395D01*
X9292571Y-18728919D01*
X9273524Y-18738443D01*
X9244952Y-18738443D01*
X9425905Y-18738443D02*
X9406857Y-18728919D01*
X9397333Y-18709871D01*
X9397333Y-18538443D01*
X9578286Y-18728919D02*
X9559238Y-18738443D01*
X9521143Y-18738443D01*
X9502095Y-18728919D01*
X9492571Y-18709871D01*
X9492571Y-18633681D01*
X9502095Y-18614633D01*
X9521143Y-18605109D01*
X9559238Y-18605109D01*
X9578286Y-18614633D01*
X9587810Y-18633681D01*
X9587810Y-18652728D01*
X9492571Y-18671776D01*
X9664000Y-18728919D02*
X9683048Y-18738443D01*
X9721143Y-18738443D01*
X9740190Y-18728919D01*
X9749714Y-18709871D01*
X9749714Y-18700347D01*
X9740190Y-18681300D01*
X9721143Y-18671776D01*
X9692571Y-18671776D01*
X9673524Y-18662252D01*
X9664000Y-18643205D01*
X9664000Y-18633681D01*
X9673524Y-18614633D01*
X9692571Y-18605109D01*
X9721143Y-18605109D01*
X9740190Y-18614633D01*
X9816381Y-18814633D02*
X9825905Y-18805109D01*
X9844952Y-18776538D01*
X9854476Y-18757490D01*
X9864000Y-18728919D01*
X9873524Y-18681300D01*
X9873524Y-18643205D01*
X9864000Y-18595586D01*
X9854476Y-18567014D01*
X9844952Y-18547967D01*
X9825905Y-18519395D01*
X9816381Y-18509871D01*
X10178286Y-18814633D02*
X10168762Y-18805109D01*
X10149714Y-18776538D01*
X10140190Y-18757490D01*
X10130667Y-18728919D01*
X10121143Y-18681300D01*
X10121143Y-18643205D01*
X10130667Y-18595586D01*
X10140190Y-18567014D01*
X10149714Y-18547967D01*
X10168762Y-18519395D01*
X10178286Y-18509871D01*
X10254476Y-18605109D02*
X10254476Y-18738443D01*
X10254476Y-18624157D02*
X10264000Y-18614633D01*
X10283048Y-18605109D01*
X10311619Y-18605109D01*
X10330667Y-18614633D01*
X10340190Y-18633681D01*
X10340190Y-18738443D01*
X10464000Y-18738443D02*
X10444952Y-18728919D01*
X10435429Y-18719395D01*
X10425905Y-18700347D01*
X10425905Y-18643205D01*
X10435429Y-18624157D01*
X10444952Y-18614633D01*
X10464000Y-18605109D01*
X10492571Y-18605109D01*
X10511619Y-18614633D01*
X10521143Y-18624157D01*
X10530667Y-18643205D01*
X10530667Y-18700347D01*
X10521143Y-18719395D01*
X10511619Y-18728919D01*
X10492571Y-18738443D01*
X10464000Y-18738443D01*
X10587810Y-18605109D02*
X10664000Y-18605109D01*
X10616381Y-18538443D02*
X10616381Y-18709871D01*
X10625905Y-18728919D01*
X10644952Y-18738443D01*
X10664000Y-18738443D01*
X10883048Y-18605109D02*
X10883048Y-18805109D01*
X10883048Y-18614633D02*
X10902095Y-18605109D01*
X10940190Y-18605109D01*
X10959238Y-18614633D01*
X10968762Y-18624157D01*
X10978286Y-18643205D01*
X10978286Y-18700347D01*
X10968762Y-18719395D01*
X10959238Y-18728919D01*
X10940190Y-18738443D01*
X10902095Y-18738443D01*
X10883048Y-18728919D01*
X11092571Y-18738443D02*
X11073524Y-18728919D01*
X11064000Y-18709871D01*
X11064000Y-18538443D01*
X11254476Y-18738443D02*
X11254476Y-18633681D01*
X11244952Y-18614633D01*
X11225905Y-18605109D01*
X11187809Y-18605109D01*
X11168762Y-18614633D01*
X11254476Y-18728919D02*
X11235428Y-18738443D01*
X11187809Y-18738443D01*
X11168762Y-18728919D01*
X11159238Y-18709871D01*
X11159238Y-18690824D01*
X11168762Y-18671776D01*
X11187809Y-18662252D01*
X11235428Y-18662252D01*
X11254476Y-18652728D01*
X11321143Y-18605109D02*
X11397333Y-18605109D01*
X11349714Y-18538443D02*
X11349714Y-18709871D01*
X11359238Y-18728919D01*
X11378286Y-18738443D01*
X11397333Y-18738443D01*
X11540190Y-18728919D02*
X11521143Y-18738443D01*
X11483048Y-18738443D01*
X11464000Y-18728919D01*
X11454476Y-18709871D01*
X11454476Y-18633681D01*
X11464000Y-18614633D01*
X11483048Y-18605109D01*
X11521143Y-18605109D01*
X11540190Y-18614633D01*
X11549714Y-18633681D01*
X11549714Y-18652728D01*
X11454476Y-18671776D01*
X11721143Y-18738443D02*
X11721143Y-18538443D01*
X11721143Y-18728919D02*
X11702095Y-18738443D01*
X11664000Y-18738443D01*
X11644952Y-18728919D01*
X11635428Y-18719395D01*
X11625905Y-18700347D01*
X11625905Y-18643205D01*
X11635428Y-18624157D01*
X11644952Y-18614633D01*
X11664000Y-18605109D01*
X11702095Y-18605109D01*
X11721143Y-18614633D01*
X11797333Y-18814633D02*
X11806857Y-18805109D01*
X11825905Y-18776538D01*
X11835428Y-18757490D01*
X11844952Y-18728919D01*
X11854476Y-18681300D01*
X11854476Y-18643205D01*
X11844952Y-18595586D01*
X11835428Y-18567014D01*
X11825905Y-18547967D01*
X11806857Y-18519395D01*
X11797333Y-18509871D01*
X4754000Y-18838147D02*
X4754000Y-19038147D01*
X4654000Y-18938147D02*
X4854000Y-18938147D01*
X5092571Y-18828623D02*
X5216381Y-18828623D01*
X5149714Y-18904813D01*
X5178286Y-18904813D01*
X5197333Y-18914337D01*
X5206857Y-18923861D01*
X5216381Y-18942908D01*
X5216381Y-18990527D01*
X5206857Y-19009575D01*
X5197333Y-19019099D01*
X5178286Y-19028623D01*
X5121143Y-19028623D01*
X5102095Y-19019099D01*
X5092571Y-19009575D01*
X5302095Y-19009575D02*
X5311619Y-19019099D01*
X5302095Y-19028623D01*
X5292571Y-19019099D01*
X5302095Y-19009575D01*
X5302095Y-19028623D01*
X5483048Y-18895289D02*
X5483048Y-19028623D01*
X5435429Y-18819099D02*
X5387810Y-18961956D01*
X5511619Y-18961956D01*
X5578286Y-18847670D02*
X5587810Y-18838147D01*
X5606857Y-18828623D01*
X5654476Y-18828623D01*
X5673524Y-18838147D01*
X5683048Y-18847670D01*
X5692571Y-18866718D01*
X5692571Y-18885766D01*
X5683048Y-18914337D01*
X5568762Y-19028623D01*
X5692571Y-19028623D01*
X5787809Y-19028623D02*
X5825905Y-19028623D01*
X5844952Y-19019099D01*
X5854476Y-19009575D01*
X5873524Y-18981004D01*
X5883048Y-18942908D01*
X5883048Y-18866718D01*
X5873524Y-18847670D01*
X5864000Y-18838147D01*
X5844952Y-18828623D01*
X5806857Y-18828623D01*
X5787809Y-18838147D01*
X5778286Y-18847670D01*
X5768762Y-18866718D01*
X5768762Y-18914337D01*
X5778286Y-18933385D01*
X5787809Y-18942908D01*
X5806857Y-18952432D01*
X5844952Y-18952432D01*
X5864000Y-18942908D01*
X5873524Y-18933385D01*
X5883048Y-18914337D01*
X5968762Y-19028623D02*
X5968762Y-18895289D01*
X5968762Y-18914337D02*
X5978286Y-18904813D01*
X5997333Y-18895289D01*
X6025905Y-18895289D01*
X6044952Y-18904813D01*
X6054476Y-18923861D01*
X6054476Y-19028623D01*
X6054476Y-18923861D02*
X6064000Y-18904813D01*
X6083048Y-18895289D01*
X6111619Y-18895289D01*
X6130667Y-18904813D01*
X6140190Y-18923861D01*
X6140190Y-19028623D01*
X6235428Y-19028623D02*
X6235428Y-18895289D01*
X6235428Y-18914337D02*
X6244952Y-18904813D01*
X6264000Y-18895289D01*
X6292571Y-18895289D01*
X6311619Y-18904813D01*
X6321143Y-18923861D01*
X6321143Y-19028623D01*
X6321143Y-18923861D02*
X6330667Y-18904813D01*
X6349714Y-18895289D01*
X6378286Y-18895289D01*
X6397333Y-18904813D01*
X6406857Y-18923861D01*
X6406857Y-19028623D01*
X6797333Y-18819099D02*
X6625905Y-19076242D01*
X7054476Y-18828623D02*
X7073524Y-18828623D01*
X7092571Y-18838147D01*
X7102095Y-18847670D01*
X7111619Y-18866718D01*
X7121143Y-18904813D01*
X7121143Y-18952432D01*
X7111619Y-18990527D01*
X7102095Y-19009575D01*
X7092571Y-19019099D01*
X7073524Y-19028623D01*
X7054476Y-19028623D01*
X7035428Y-19019099D01*
X7025905Y-19009575D01*
X7016381Y-18990527D01*
X7006857Y-18952432D01*
X7006857Y-18904813D01*
X7016381Y-18866718D01*
X7025905Y-18847670D01*
X7035428Y-18838147D01*
X7054476Y-18828623D01*
X7206857Y-19009575D02*
X7216381Y-19019099D01*
X7206857Y-19028623D01*
X7197333Y-19019099D01*
X7206857Y-19009575D01*
X7206857Y-19028623D01*
X7406857Y-19028623D02*
X7292571Y-19028623D01*
X7349714Y-19028623D02*
X7349714Y-18828623D01*
X7330667Y-18857194D01*
X7311619Y-18876242D01*
X7292571Y-18885766D01*
X7473524Y-18828623D02*
X7597333Y-18828623D01*
X7530667Y-18904813D01*
X7559238Y-18904813D01*
X7578286Y-18914337D01*
X7587809Y-18923861D01*
X7597333Y-18942908D01*
X7597333Y-18990527D01*
X7587809Y-19009575D01*
X7578286Y-19019099D01*
X7559238Y-19028623D01*
X7502095Y-19028623D01*
X7483048Y-19019099D01*
X7473524Y-19009575D01*
X7778286Y-18828623D02*
X7683048Y-18828623D01*
X7673524Y-18923861D01*
X7683048Y-18914337D01*
X7702095Y-18904813D01*
X7749714Y-18904813D01*
X7768762Y-18914337D01*
X7778286Y-18923861D01*
X7787809Y-18942908D01*
X7787809Y-18990527D01*
X7778286Y-19009575D01*
X7768762Y-19019099D01*
X7749714Y-19028623D01*
X7702095Y-19028623D01*
X7683048Y-19019099D01*
X7673524Y-19009575D01*
X7911619Y-18828623D02*
X7930667Y-18828623D01*
X7949714Y-18838147D01*
X7959238Y-18847670D01*
X7968762Y-18866718D01*
X7978286Y-18904813D01*
X7978286Y-18952432D01*
X7968762Y-18990527D01*
X7959238Y-19009575D01*
X7949714Y-19019099D01*
X7930667Y-19028623D01*
X7911619Y-19028623D01*
X7892571Y-19019099D01*
X7883048Y-19009575D01*
X7873524Y-18990527D01*
X7864000Y-18952432D01*
X7864000Y-18904813D01*
X7873524Y-18866718D01*
X7883048Y-18847670D01*
X7892571Y-18838147D01*
X7911619Y-18828623D01*
X8054476Y-18828623D02*
X8054476Y-18866718D01*
X8130667Y-18828623D02*
X8130667Y-18866718D01*
X8425905Y-19104813D02*
X8416381Y-19095289D01*
X8397333Y-19066718D01*
X8387809Y-19047670D01*
X8378286Y-19019099D01*
X8368762Y-18971480D01*
X8368762Y-18933385D01*
X8378286Y-18885766D01*
X8387809Y-18857194D01*
X8397333Y-18838147D01*
X8416381Y-18809575D01*
X8425905Y-18800051D01*
X8606857Y-19028623D02*
X8492571Y-19028623D01*
X8549714Y-19028623D02*
X8549714Y-18828623D01*
X8530667Y-18857194D01*
X8511619Y-18876242D01*
X8492571Y-18885766D01*
X8673524Y-18828623D02*
X8806857Y-18828623D01*
X8721143Y-19028623D01*
X9035429Y-19028623D02*
X9035429Y-18828623D01*
X9121143Y-19028623D02*
X9121143Y-18923861D01*
X9111619Y-18904813D01*
X9092571Y-18895289D01*
X9064000Y-18895289D01*
X9044952Y-18904813D01*
X9035429Y-18914337D01*
X9244952Y-19028623D02*
X9225905Y-19019099D01*
X9216381Y-19009575D01*
X9206857Y-18990527D01*
X9206857Y-18933385D01*
X9216381Y-18914337D01*
X9225905Y-18904813D01*
X9244952Y-18895289D01*
X9273524Y-18895289D01*
X9292571Y-18904813D01*
X9302095Y-18914337D01*
X9311619Y-18933385D01*
X9311619Y-18990527D01*
X9302095Y-19009575D01*
X9292571Y-19019099D01*
X9273524Y-19028623D01*
X9244952Y-19028623D01*
X9425905Y-19028623D02*
X9406857Y-19019099D01*
X9397333Y-19000051D01*
X9397333Y-18828623D01*
X9578286Y-19019099D02*
X9559238Y-19028623D01*
X9521143Y-19028623D01*
X9502095Y-19019099D01*
X9492571Y-19000051D01*
X9492571Y-18923861D01*
X9502095Y-18904813D01*
X9521143Y-18895289D01*
X9559238Y-18895289D01*
X9578286Y-18904813D01*
X9587810Y-18923861D01*
X9587810Y-18942908D01*
X9492571Y-18961956D01*
X9664000Y-19019099D02*
X9683048Y-19028623D01*
X9721143Y-19028623D01*
X9740190Y-19019099D01*
X9749714Y-19000051D01*
X9749714Y-18990527D01*
X9740190Y-18971480D01*
X9721143Y-18961956D01*
X9692571Y-18961956D01*
X9673524Y-18952432D01*
X9664000Y-18933385D01*
X9664000Y-18923861D01*
X9673524Y-18904813D01*
X9692571Y-18895289D01*
X9721143Y-18895289D01*
X9740190Y-18904813D01*
X9816381Y-19104813D02*
X9825905Y-19095289D01*
X9844952Y-19066718D01*
X9854476Y-19047670D01*
X9864000Y-19019099D01*
X9873524Y-18971480D01*
X9873524Y-18933385D01*
X9864000Y-18885766D01*
X9854476Y-18857194D01*
X9844952Y-18838147D01*
X9825905Y-18809575D01*
X9816381Y-18800051D01*
X10178286Y-19104813D02*
X10168762Y-19095289D01*
X10149714Y-19066718D01*
X10140190Y-19047670D01*
X10130667Y-19019099D01*
X10121143Y-18971480D01*
X10121143Y-18933385D01*
X10130667Y-18885766D01*
X10140190Y-18857194D01*
X10149714Y-18838147D01*
X10168762Y-18809575D01*
X10178286Y-18800051D01*
X10254476Y-18895289D02*
X10254476Y-19028623D01*
X10254476Y-18914337D02*
X10264000Y-18904813D01*
X10283048Y-18895289D01*
X10311619Y-18895289D01*
X10330667Y-18904813D01*
X10340190Y-18923861D01*
X10340190Y-19028623D01*
X10464000Y-19028623D02*
X10444952Y-19019099D01*
X10435429Y-19009575D01*
X10425905Y-18990527D01*
X10425905Y-18933385D01*
X10435429Y-18914337D01*
X10444952Y-18904813D01*
X10464000Y-18895289D01*
X10492571Y-18895289D01*
X10511619Y-18904813D01*
X10521143Y-18914337D01*
X10530667Y-18933385D01*
X10530667Y-18990527D01*
X10521143Y-19009575D01*
X10511619Y-19019099D01*
X10492571Y-19028623D01*
X10464000Y-19028623D01*
X10587810Y-18895289D02*
X10664000Y-18895289D01*
X10616381Y-18828623D02*
X10616381Y-19000051D01*
X10625905Y-19019099D01*
X10644952Y-19028623D01*
X10664000Y-19028623D01*
X10883048Y-18895289D02*
X10883048Y-19095289D01*
X10883048Y-18904813D02*
X10902095Y-18895289D01*
X10940190Y-18895289D01*
X10959238Y-18904813D01*
X10968762Y-18914337D01*
X10978286Y-18933385D01*
X10978286Y-18990527D01*
X10968762Y-19009575D01*
X10959238Y-19019099D01*
X10940190Y-19028623D01*
X10902095Y-19028623D01*
X10883048Y-19019099D01*
X11092571Y-19028623D02*
X11073524Y-19019099D01*
X11064000Y-19000051D01*
X11064000Y-18828623D01*
X11254476Y-19028623D02*
X11254476Y-18923861D01*
X11244952Y-18904813D01*
X11225905Y-18895289D01*
X11187809Y-18895289D01*
X11168762Y-18904813D01*
X11254476Y-19019099D02*
X11235428Y-19028623D01*
X11187809Y-19028623D01*
X11168762Y-19019099D01*
X11159238Y-19000051D01*
X11159238Y-18981004D01*
X11168762Y-18961956D01*
X11187809Y-18952432D01*
X11235428Y-18952432D01*
X11254476Y-18942908D01*
X11321143Y-18895289D02*
X11397333Y-18895289D01*
X11349714Y-18828623D02*
X11349714Y-19000051D01*
X11359238Y-19019099D01*
X11378286Y-19028623D01*
X11397333Y-19028623D01*
X11540190Y-19019099D02*
X11521143Y-19028623D01*
X11483048Y-19028623D01*
X11464000Y-19019099D01*
X11454476Y-19000051D01*
X11454476Y-18923861D01*
X11464000Y-18904813D01*
X11483048Y-18895289D01*
X11521143Y-18895289D01*
X11540190Y-18904813D01*
X11549714Y-18923861D01*
X11549714Y-18942908D01*
X11454476Y-18961956D01*
X11721143Y-19028623D02*
X11721143Y-18828623D01*
X11721143Y-19019099D02*
X11702095Y-19028623D01*
X11664000Y-19028623D01*
X11644952Y-19019099D01*
X11635428Y-19009575D01*
X11625905Y-18990527D01*
X11625905Y-18933385D01*
X11635428Y-18914337D01*
X11644952Y-18904813D01*
X11664000Y-18895289D01*
X11702095Y-18895289D01*
X11721143Y-18904813D01*
X11797333Y-19104813D02*
X11806857Y-19095289D01*
X11825905Y-19066718D01*
X11835428Y-19047670D01*
X11844952Y-19019099D01*
X11854476Y-18971480D01*
X11854476Y-18933385D01*
X11844952Y-18885766D01*
X11835428Y-18857194D01*
X11825905Y-18838147D01*
X11806857Y-18809575D01*
X11797333Y-18800051D01*
M02*
