%TF.GenerationSoftware,KiCad,Pcbnew,(6.0.1)*%
%TF.CreationDate,2022-01-21T15:59:00-05:00*%
%TF.ProjectId,quagga,71756167-6761-42e6-9b69-6361645f7063,v1.0.0*%
%TF.SameCoordinates,Original*%
%TF.FileFunction,Profile,NP*%
%FSLAX46Y46*%
G04 Gerber Fmt 4.6, Leading zero omitted, Abs format (unit mm)*
G04 Created by KiCad (PCBNEW (6.0.1)) date 2022-01-21 15:59:00*
%MOMM*%
%LPD*%
G01*
G04 APERTURE LIST*
%TA.AperFunction,Profile*%
%ADD10C,0.150000*%
%TD*%
G04 APERTURE END LIST*
D10*
X145658680Y-98134396D02*
G75*
G03*
X142658680Y-95134396I-3000001J-1D01*
G01*
X104865000Y-144967500D02*
X104865000Y-142092500D01*
X126615000Y-94155000D02*
G75*
G03*
X127615000Y-95155000I999999J-1D01*
G01*
X107865000Y-84842500D02*
G75*
G03*
X104865000Y-81842500I-3000001J-1D01*
G01*
X166365000Y-116840000D02*
G75*
G03*
X165735000Y-115813680I-875016J169398D01*
G01*
X83115000Y-86280000D02*
G75*
G03*
X86115000Y-83280000I-1J3000001D01*
G01*
X126615000Y-93717500D02*
X126615000Y-94155000D01*
X67365000Y-91800000D02*
X67365000Y-89280000D01*
X87115000Y-81842500D02*
X104865000Y-81842500D01*
X107865000Y-87717500D02*
G75*
G03*
X110865000Y-90717500I3000001J1D01*
G01*
X148661973Y-115813680D02*
X165735000Y-115813680D01*
X70365000Y-86280000D02*
G75*
G03*
X67365000Y-89280000I1J-3000001D01*
G01*
X165100000Y-161290000D02*
G75*
G03*
X166370000Y-158750000I-2446251J2810625D01*
G01*
X92115000Y-139092500D02*
G75*
G03*
X89115000Y-142092500I1J-3000001D01*
G01*
X110490000Y-167005000D02*
G75*
G03*
X112395000Y-168910000I3066972J1161972D01*
G01*
X67365000Y-152050000D02*
G75*
G03*
X70365000Y-149050000I-1J3000001D01*
G01*
X87115000Y-81842500D02*
G75*
G03*
X86115000Y-82842500I-1J-999999D01*
G01*
X148590000Y-176530000D02*
X165100000Y-161290000D01*
X107865000Y-84842500D02*
X107865000Y-87717500D01*
X89115000Y-142092500D02*
X89115000Y-142530000D01*
X48615000Y-149050000D02*
X48615000Y-97800000D01*
X64365000Y-94800000D02*
G75*
G03*
X67365000Y-91800000I-1J3000001D01*
G01*
X88115000Y-143530000D02*
G75*
G03*
X89115000Y-142530000I1J999999D01*
G01*
X51615000Y-94800000D02*
G75*
G03*
X48615000Y-97800000I1J-3000001D01*
G01*
X110490000Y-167005000D02*
X104865000Y-144967500D01*
X145415000Y-177165000D02*
G75*
G03*
X148590000Y-176530000I978886J3360572D01*
G01*
X145658680Y-98134396D02*
X145661973Y-112813680D01*
X73365000Y-143530000D02*
X88115000Y-143530000D01*
X145661973Y-112813680D02*
G75*
G03*
X148661973Y-115813680I3000001J1D01*
G01*
X92115000Y-139092500D02*
X101865000Y-139092500D01*
X166370000Y-158750000D02*
X166365000Y-116840000D01*
X112395000Y-168910000D02*
X145415000Y-177165000D01*
X51615000Y-152050000D02*
X67365000Y-152050000D01*
X48615000Y-149050000D02*
G75*
G03*
X51615000Y-152050000I3000001J1D01*
G01*
X110865000Y-90717500D02*
X123615000Y-90717500D01*
X127615000Y-95155000D02*
X142658680Y-95134396D01*
X51615000Y-94800000D02*
X64365000Y-94800000D01*
X86115000Y-83280000D02*
X86115000Y-82842500D01*
X73365000Y-143530000D02*
G75*
G03*
X70365000Y-146530000I1J-3000001D01*
G01*
X70365000Y-86280000D02*
X83115000Y-86280000D01*
X104865000Y-142092500D02*
G75*
G03*
X101865000Y-139092500I-3000001J-1D01*
G01*
X126615000Y-93717500D02*
G75*
G03*
X123615000Y-90717500I-3000001J-1D01*
G01*
X70365000Y-146530000D02*
X70365000Y-149050000D01*
M02*
