%TF.GenerationSoftware,KiCad,Pcbnew,(6.0.1)*%
%TF.CreationDate,2022-01-21T15:58:59-05:00*%
%TF.ProjectId,quagga,71756167-6761-42e6-9b69-6361645f7063,v1.0.0*%
%TF.SameCoordinates,Original*%
%TF.FileFunction,Copper,L2,Bot*%
%TF.FilePolarity,Positive*%
%FSLAX46Y46*%
G04 Gerber Fmt 4.6, Leading zero omitted, Abs format (unit mm)*
G04 Created by KiCad (PCBNEW (6.0.1)) date 2022-01-21 15:58:59*
%MOMM*%
%LPD*%
G01*
G04 APERTURE LIST*
%TA.AperFunction,ComponentPad*%
%ADD10C,2.032000*%
%TD*%
%TA.AperFunction,ComponentPad*%
%ADD11O,2.200000X1.600000*%
%TD*%
%TA.AperFunction,ComponentPad*%
%ADD12R,1.752600X1.752600*%
%TD*%
%TA.AperFunction,ComponentPad*%
%ADD13C,1.752600*%
%TD*%
%TA.AperFunction,ViaPad*%
%ADD14C,0.800000*%
%TD*%
%TA.AperFunction,Conductor*%
%ADD15C,0.250000*%
%TD*%
G04 APERTURE END LIST*
D10*
X118290824Y-155409490D03*
X128138902Y-157145971D03*
X123579524Y-154209634D03*
X123579524Y-154209634D03*
X64990000Y-137375000D03*
X54990000Y-137375000D03*
X59990000Y-135275000D03*
X59990000Y-135275000D03*
X92490000Y-124417500D03*
X102490000Y-124417500D03*
X97490000Y-122317500D03*
X97490000Y-122317500D03*
X54990000Y-101875000D03*
X64990000Y-101875000D03*
X59990000Y-99775000D03*
X59990000Y-99775000D03*
X129990000Y-119980000D03*
X139990000Y-119980000D03*
X134990000Y-117880000D03*
X134990000Y-117880000D03*
X73740000Y-93355000D03*
X83740000Y-93355000D03*
X78740000Y-91255000D03*
X78740000Y-91255000D03*
X92490000Y-88917500D03*
X102490000Y-88917500D03*
X97490000Y-86817500D03*
X97490000Y-86817500D03*
X64990000Y-119625000D03*
X54990000Y-119625000D03*
X59990000Y-117525000D03*
X59990000Y-117525000D03*
X139027586Y-160338668D03*
X148299424Y-164084734D03*
X144450179Y-160264615D03*
X144450179Y-160264615D03*
X121240000Y-97792500D03*
X111240000Y-97792500D03*
X116240000Y-95692500D03*
X116240000Y-95692500D03*
X129990000Y-102230000D03*
X139990000Y-102230000D03*
X134990000Y-100130000D03*
X134990000Y-100130000D03*
X92490000Y-106667500D03*
X102490000Y-106667500D03*
X97490000Y-104567500D03*
X97490000Y-104567500D03*
X73740000Y-128855000D03*
X83740000Y-128855000D03*
X78740000Y-126755000D03*
X78740000Y-126755000D03*
D11*
X155152500Y-153275000D03*
X156252500Y-157875000D03*
X160252500Y-157875000D03*
X163252500Y-157875000D03*
D10*
X139990000Y-137730000D03*
X129990000Y-137730000D03*
X134990000Y-135630000D03*
X134990000Y-135630000D03*
X121240000Y-133292500D03*
X111240000Y-133292500D03*
X116240000Y-131192500D03*
X116240000Y-131192500D03*
D12*
X149225000Y-120015000D03*
D13*
X149225000Y-122555000D03*
X149225000Y-125095000D03*
X149225000Y-127635000D03*
X149225000Y-130175000D03*
X149225000Y-132715000D03*
X149225000Y-135255000D03*
X149225000Y-137795000D03*
X149225000Y-140335000D03*
X149225000Y-142875000D03*
X149225000Y-145415000D03*
X149225000Y-147955000D03*
X164465000Y-120015000D03*
X164465000Y-122555000D03*
X164465000Y-125095000D03*
X164465000Y-127635000D03*
X164465000Y-130175000D03*
X164465000Y-132715000D03*
X164465000Y-135255000D03*
X164465000Y-137795000D03*
X164465000Y-140335000D03*
X164465000Y-142875000D03*
X164465000Y-145415000D03*
X164465000Y-147955000D03*
D10*
X83740000Y-111105000D03*
X73740000Y-111105000D03*
X78740000Y-109005000D03*
X78740000Y-109005000D03*
X111240000Y-115542500D03*
X121240000Y-115542500D03*
X116240000Y-113442500D03*
X116240000Y-113442500D03*
D14*
X126042500Y-111270700D03*
D15*
X86966100Y-104567500D02*
X80799500Y-110734100D01*
X80799500Y-110734100D02*
X80469100Y-110734100D01*
X97490000Y-104567500D02*
X86966100Y-104567500D01*
X62063400Y-126755000D02*
X78740000Y-126755000D01*
X118282800Y-129149700D02*
X118994500Y-129149700D01*
X137037900Y-102177900D02*
X134990000Y-100130000D01*
X130987400Y-146801700D02*
X123579500Y-154209600D01*
X164465000Y-127635000D02*
X164465000Y-125095000D01*
X99537900Y-95692500D02*
X99537900Y-102519600D01*
X80469100Y-110734100D02*
X78740000Y-109005000D01*
X59990000Y-99775000D02*
X76692100Y-99775000D01*
X118282800Y-115485300D02*
X118282800Y-129149700D01*
X99537900Y-102519600D02*
X97490000Y-104567500D01*
X80799500Y-122317500D02*
X80799500Y-124695500D01*
X134990000Y-117880000D02*
X137037900Y-115832100D01*
X80799500Y-110734100D02*
X80799500Y-122317500D01*
X134990000Y-135630000D02*
X130232400Y-140387600D01*
X62063400Y-133201600D02*
X59990000Y-135275000D01*
X76692100Y-99775000D02*
X76692100Y-106957100D01*
X76692100Y-93302900D02*
X76692100Y-99775000D01*
X62063400Y-126755000D02*
X62063400Y-133201600D01*
X116240000Y-113442500D02*
X118282800Y-115485300D01*
X59990000Y-117525000D02*
X62063400Y-119598400D01*
X76692100Y-106957100D02*
X78740000Y-109005000D01*
X80799500Y-124695500D02*
X78740000Y-126755000D01*
X62063400Y-119598400D02*
X62063400Y-126755000D01*
X99537900Y-95692500D02*
X116240000Y-95692500D01*
X137037900Y-115832100D02*
X137037900Y-102177900D01*
X118282800Y-129149700D02*
X116240000Y-131192500D01*
X144450200Y-160264600D02*
X130987400Y-146801700D01*
X78740000Y-91255000D02*
X76692100Y-93302900D01*
X130232400Y-140387600D02*
X130987300Y-141142500D01*
X116240000Y-113442500D02*
X118287900Y-111394600D01*
X99537900Y-95692500D02*
X99537900Y-88865400D01*
X80799500Y-122317500D02*
X97490000Y-122317500D01*
X130987300Y-146801700D02*
X130987400Y-146801700D01*
X118287900Y-97740400D02*
X116240000Y-95692500D01*
X118994500Y-129149700D02*
X130232400Y-140387600D01*
X118287900Y-111394600D02*
X118287900Y-97740400D01*
X130987300Y-141142500D02*
X130987300Y-146801700D01*
X99537900Y-88865400D02*
X97490000Y-86817500D01*
X102490000Y-124417500D02*
X92490000Y-124417500D01*
X149225000Y-135255000D02*
X149225000Y-134453200D01*
X149225000Y-134453200D02*
X126042500Y-111270700D01*
X116893900Y-91541200D02*
X105113700Y-91541200D01*
X138496800Y-124401900D02*
X127260300Y-113165400D01*
X149225000Y-137795000D02*
X138496800Y-127066800D01*
X138496800Y-127066800D02*
X138496800Y-124401900D01*
X125316700Y-99964000D02*
X116893900Y-91541200D01*
X127260300Y-113165400D02*
X126879900Y-113165400D01*
X125316700Y-111602200D02*
X125316700Y-99964000D01*
X105113700Y-91541200D02*
X102490000Y-88917500D01*
X126879900Y-113165400D02*
X125316700Y-111602200D01*
X122920700Y-115542500D02*
X146866000Y-139487800D01*
X146866000Y-140516000D02*
X149225000Y-142875000D01*
X146866000Y-139487800D02*
X146866000Y-140516000D01*
X121240000Y-115542500D02*
X122920700Y-115542500D01*
X150450300Y-142396300D02*
X150450300Y-144189700D01*
X121240000Y-97792500D02*
X124510800Y-101063300D01*
X148795600Y-141605000D02*
X149659000Y-141605000D01*
X124510800Y-116397800D02*
X147886800Y-139773800D01*
X147886800Y-139773800D02*
X147886800Y-140696200D01*
X124510800Y-101063300D02*
X124510800Y-116397800D01*
X150450300Y-144189700D02*
X149225000Y-145415000D01*
X147886800Y-140696200D02*
X148795600Y-141605000D01*
X149659000Y-141605000D02*
X150450300Y-142396300D01*
X149225000Y-147955000D02*
X139990000Y-138720000D01*
X139990000Y-138720000D02*
X139990000Y-137730000D01*
X142613700Y-126103700D02*
X142613700Y-122603700D01*
X142613700Y-122603700D02*
X139990000Y-119980000D01*
X149225000Y-132715000D02*
X142613700Y-126103700D01*
X144514400Y-125464400D02*
X144514400Y-106754400D01*
X144514400Y-106754400D02*
X139990000Y-102230000D01*
X149225000Y-130175000D02*
X144514400Y-125464400D01*
X148299400Y-162366300D02*
X148299400Y-164084700D01*
X164465000Y-146200700D02*
X148299400Y-162366300D01*
X164465000Y-145415000D02*
X164465000Y-146200700D01*
X163252500Y-157875000D02*
X163252500Y-159000300D01*
X146944400Y-164676100D02*
X147704500Y-165436200D01*
X146944400Y-158016400D02*
X146944400Y-164676100D01*
X150901600Y-129311600D02*
X150901600Y-154059200D01*
X147704500Y-165436200D02*
X156816600Y-165436200D01*
X156816600Y-165436200D02*
X163252500Y-159000300D01*
X149225000Y-127635000D02*
X150901600Y-129311600D01*
X150901600Y-154059200D02*
X146944400Y-158016400D01*
X165680900Y-151321300D02*
X160252500Y-156749700D01*
X165680900Y-131390900D02*
X165680900Y-151321300D01*
X164465000Y-130175000D02*
X165680900Y-131390900D01*
X160252500Y-157875000D02*
X160252500Y-156749700D01*
M02*
